<svg width="64" height="64" viewBox="0 0 64 64" fill="none" xmlns="http://www.w3.org/2000/svg">
<path d="M7 8V13C7 15.2091 8.79086 17 11 17H48C50.2091 17 52 15.2091 52 13V8C52 5.79086 50.2091 4 48 4H11C8.79086 4 7 5.79086 7 8Z" stroke="#0080FF" stroke-width="2" stroke-linecap="round" stroke-linejoin="round"/>
<path d="M16 8.5V12.5M20.5 10.5H21M24.5 10.5H25M30 10.5H32M43.5 10V11C43.5 11.5523 43.0523 12 42.5 12H38.5C37.9477 12 37.5 11.5523 37.5 11V10C37.5 9.44772 37.9477 9 38.5 9H42.5C43.0523 9 43.5 9.44772 43.5 10Z" stroke="#0080FF" stroke-width="2" stroke-linecap="round" stroke-linejoin="round"/>
<path d="M7 21V26C7 28.2091 8.79086 30 11 30H48C50.2091 30 52 28.2091 52 26V21C52 18.7909 50.2091 17 48 17H11C8.79086 17 7 18.7909 7 21Z" fill="#CBEFFF" stroke="#0080FF" stroke-width="2" stroke-linecap="round" stroke-linejoin="round"/>
<path d="M16 21.5V25.5M20.5 23.5H21M24.5 23.5H25M30 23.5H32M43.5 23V24C43.5 24.5523 43.0523 25 42.5 25H38.5C37.9477 25 37.5 24.5523 37.5 24V23C37.5 22.4477 37.9477 22 38.5 22H42.5C43.0523 22 43.5 22.4477 43.5 23Z" stroke="#0080FF" stroke-width="2" stroke-linecap="round" stroke-linejoin="round"/>
<path d="M52 35V34C52 31.7909 50.2091 30 48 30H11C8.79086 30 7 31.7909 7 34V39C7 41.2091 8.79086 43 11 43H38" stroke="#0080FF" stroke-width="2" stroke-linecap="round" stroke-linejoin="round"/>
<path d="M16 34.5V38.5M20.5 36.5H21M24.5 36.5H25M30 36.5H32M39.5 38H38.5C37.9477 38 37.5 37.5523 37.5 37V36C37.5 35.4477 37.9477 35 38.5 35H40.5" stroke="#0080FF" stroke-width="2" stroke-linecap="round" stroke-linejoin="round"/>
<path d="M29 47V50" stroke="#0080FF" stroke-width="2" stroke-linecap="round" stroke-linejoin="round"/>
<path d="M30 51H28C26.8954 51 26 51.8954 26 53V55C26 56.1046 26.8954 57 28 57H30C31.1046 57 32 56.1046 32 55V53C32 51.8954 31.1046 51 30 51Z" stroke="#0080FF" stroke-width="2" stroke-linecap="round" stroke-linejoin="round"/>
<path d="M26 54H9.5" stroke="#0080FF" stroke-width="2" stroke-linecap="round" stroke-linejoin="round"/>
<path d="M32 54H38" stroke="#0080FF" stroke-width="2" stroke-linecap="round" stroke-linejoin="round"/>
<path d="M49.6667 38.5H45C43.8954 38.5 43 39.3954 43 40.5V48C43 48.5523 42.5523 49 42 49H40.4142C39.5233 49 39.0771 50.0771 39.7071 50.7071L46.5094 57.5094C47.3196 58.3196 48.6437 58.2848 49.4102 57.4331L55.4979 50.669C56.0771 50.0254 55.6204 49 54.7546 49H52.6667C52.1144 49 51.6667 48.5523 51.6667 48V43V40.5C51.6667 39.3954 50.7712 38.5 49.6667 38.5Z" fill="#CBEFFF" stroke="#0080FF" stroke-width="2" stroke-linecap="round" stroke-linejoin="round"/>
</svg>
