<svg width="445" height="170" viewBox="0 0 445 170" fill="none" xmlns="http://www.w3.org/2000/svg">
<path d="M349.091 25.3432L355.637 27.751C357.392 28.3968 358.746 29.8244 359.298 31.6117L360.564 35.7123L348.406 31.2399" fill="white"/>
<path d="M349.091 25.3432L355.637 27.751C357.392 28.3968 358.746 29.8244 359.298 31.6117L360.564 35.7123L348.406 31.2398" stroke="#0080FF" stroke-width="2" stroke-linejoin="round"/>
<path d="M341.375 20.7407L347.921 23.1484C349.676 23.7942 351.03 25.2219 351.582 27.0092L352.848 31.1097L340.69 26.6373" fill="#EEF7FF"/>
<path d="M341.375 20.7407L347.921 23.1484C349.676 23.7942 351.03 25.2219 351.582 27.0092L352.848 31.1097L340.69 26.6373" stroke="#0080FF" stroke-width="2" stroke-linejoin="round"/>
<path d="M362.683 58.7356C360.395 64.9555 353.498 68.143 347.278 65.8549L317.486 54.8959C311.267 52.6079 308.079 45.7108 310.367 39.4909L318.293 17.944C319.628 14.3158 323.651 12.4564 327.28 13.7911L338.282 17.8384C340.665 18.7148 342.386 20.8124 342.78 23.32L342.816 23.5485C343.211 26.0561 344.932 28.1537 347.315 29.0301L359.214 33.4074C365.434 35.6954 368.621 42.5925 366.333 48.8124L362.683 58.7356Z" fill="white" stroke="#0080FF" stroke-width="2" stroke-linejoin="round"/>
<path d="M321.072 25.6746L320.259 27.8849M317.007 36.7264L315.38 41.1471M367.91 53.3006L365.587 59.6159M368.723 51.0902L369.188 49.8272" stroke="#0080FF" stroke-width="2" stroke-linecap="round" stroke-linejoin="round"/>
<path d="M63.1975 40.2829C63.1975 29.7895 71.7041 21.283 82.1975 21.283H146.699C157.192 21.283 165.699 29.7895 165.699 40.283V141.201H63.1975V40.2829Z" fill="white" stroke="#0080FF" stroke-width="2"/>
<path d="M63.1975 14.4407H165.077V39.7756L63.1975 36.3174V14.4407Z" fill="#0080FF" stroke="#0080FF" stroke-width="2"/>
<path d="M165.077 82.6988L117.878 81.2309L165.077 81.003V82.6988Z" fill="#0080FF" stroke="#0080FF" stroke-width="2"/>
<path d="M165.077 126.236L109.928 124.235L165.077 123.924V126.236Z" fill="#0080FF" stroke="#0080FF" stroke-width="2"/>
<path d="M184.18 30.4343C184.18 34.3003 181.046 37.4343 177.18 37.4343L115.358 37.4343L115.358 4.02344L177.18 4.02343C181.046 4.02343 184.18 7.15744 184.18 11.0234L184.18 30.4343Z" fill="white" stroke="#0080FF" stroke-width="2"/>
<path d="M44.5366 11.0235C44.5366 7.1575 47.6706 4.0235 51.5366 4.0235L115.382 4.02349L115.382 37.4344L51.5366 37.4344C47.6706 37.4344 44.5366 34.3004 44.5366 30.4344L44.5366 11.0235Z" fill="white" stroke="#0080FF" stroke-width="2"/>
<rect x="111.452" y="24.922" width="6.39606" height="1.34654" rx="0.673269" transform="rotate(180 111.452 24.922)" fill="#08FFC8"/>
<rect x="111.452" y="21.219" width="7.74259" height="1.34654" rx="0.673269" transform="rotate(180 111.452 21.219)" fill="#FFB92A"/>
<rect x="111.452" y="17.5161" width="3.36635" height="1.34654" rx="0.673269" transform="rotate(180 111.452 17.5161)" fill="#08FFC8"/>
<path d="M60.6203 23.9121C62.4794 23.9121 63.9866 22.4049 63.9866 20.5457C63.9866 18.6865 62.4794 17.1794 60.6203 17.1794C58.7611 17.1794 57.2539 18.6865 57.2539 20.5457C57.2539 22.4049 58.7611 23.9121 60.6203 23.9121Z" fill="#08FFC8"/>
<path d="M70.3822 23.9121C72.2414 23.9121 73.7486 22.4049 73.7486 20.5457C73.7486 18.6865 72.2414 17.1794 70.3822 17.1794C68.523 17.1794 67.0159 18.6865 67.0159 20.5457C67.0159 22.4049 68.523 23.9121 70.3822 23.9121Z" fill="#FFB92A"/>
<path d="M120.204 11.7932C121.32 11.7932 122.224 10.8889 122.224 9.77341C122.224 8.6579 121.32 7.7536 120.204 7.7536C119.089 7.7536 118.184 8.6579 118.184 9.77341C118.184 10.8889 119.089 11.7932 120.204 11.7932Z" stroke="#0080FF" stroke-width="2" stroke-linejoin="round"/>
<path d="M129.967 11.7932C131.082 11.7932 131.987 10.8889 131.987 9.77341C131.987 8.6579 131.082 7.7536 129.967 7.7536C128.851 7.7536 127.947 8.6579 127.947 9.77341C127.947 10.8889 128.851 11.7932 129.967 11.7932Z" stroke="#0080FF" stroke-width="2" stroke-linejoin="round"/>
<path d="M139.392 11.7932C140.508 11.7932 141.412 10.8889 141.412 9.77341C141.412 8.6579 140.508 7.7536 139.392 7.7536C138.277 7.7536 137.373 8.6579 137.373 9.77341C137.373 10.8889 138.277 11.7932 139.392 11.7932Z" stroke="#0080FF" stroke-width="2" stroke-linejoin="round"/>
<path d="M148.818 11.7932C149.934 11.7932 150.838 10.8889 150.838 9.77341C150.838 8.6579 149.934 7.7536 148.818 7.7536C147.703 7.7536 146.798 8.6579 146.798 9.77341C146.798 10.8889 147.703 11.7932 148.818 11.7932Z" stroke="#0080FF" stroke-width="2" stroke-linejoin="round"/>
<path d="M158.581 11.7932C159.696 11.7932 160.6 10.8889 160.6 9.77341C160.6 8.6579 159.696 7.7536 158.581 7.7536C157.465 7.7536 156.561 8.6579 156.561 9.77341C156.561 10.8889 157.465 11.7932 158.581 11.7932Z" fill="#0080FF"/>
<path d="M168.006 11.7932C169.122 11.7932 170.026 10.8889 170.026 9.77341C170.026 8.6579 169.122 7.7536 168.006 7.7536C166.891 7.7536 165.987 8.6579 165.987 9.77341C165.987 10.8889 166.891 11.7932 168.006 11.7932Z" stroke="#0080FF" stroke-width="2" stroke-linejoin="round"/>
<path d="M177.432 11.7932C178.548 11.7932 179.452 10.8889 179.452 9.77341C179.452 8.6579 178.548 7.7536 177.432 7.7536C176.317 7.7536 175.412 8.6579 175.412 9.77341C175.412 10.8889 176.317 11.7932 177.432 11.7932Z" stroke="#0080FF" stroke-width="2" stroke-linejoin="round"/>
<path d="M120.204 22.5656C121.32 22.5656 122.224 21.6613 122.224 20.5457C122.224 19.4302 121.32 18.5259 120.204 18.5259C119.089 18.5259 118.184 19.4302 118.184 20.5457C118.184 21.6613 119.089 22.5656 120.204 22.5656Z" fill="#0080FF"/>
<path d="M129.967 22.5656C131.082 22.5656 131.987 21.6613 131.987 20.5457C131.987 19.4302 131.082 18.5259 129.967 18.5259C128.851 18.5259 127.947 19.4302 127.947 20.5457C127.947 21.6613 128.851 22.5656 129.967 22.5656Z" fill="#0080FF"/>
<path d="M139.392 22.5656C140.508 22.5656 141.412 21.6613 141.412 20.5457C141.412 19.4302 140.508 18.5259 139.392 18.5259C138.277 18.5259 137.373 19.4302 137.373 20.5457C137.373 21.6613 138.277 22.5656 139.392 22.5656Z" stroke="#0080FF" stroke-width="2" stroke-linejoin="round"/>
<path d="M148.818 22.5656C149.934 22.5656 150.838 21.6613 150.838 20.5457C150.838 19.4302 149.934 18.5259 148.818 18.5259C147.703 18.5259 146.798 19.4302 146.798 20.5457C146.798 21.6613 147.703 22.5656 148.818 22.5656Z" stroke="#0080FF" stroke-width="2" stroke-linejoin="round"/>
<path d="M158.581 22.5656C159.696 22.5656 160.6 21.6613 160.6 20.5457C160.6 19.4302 159.696 18.5259 158.581 18.5259C157.465 18.5259 156.561 19.4302 156.561 20.5457C156.561 21.6613 157.465 22.5656 158.581 22.5656Z" stroke="#0080FF" stroke-width="2" stroke-linejoin="round"/>
<path d="M168.006 22.5656C169.122 22.5656 170.026 21.6613 170.026 20.5457C170.026 19.4302 169.122 18.5259 168.006 18.5259C166.891 18.5259 165.987 19.4302 165.987 20.5457C165.987 21.6613 166.891 22.5656 168.006 22.5656Z" stroke="#0080FF" stroke-width="2" stroke-linejoin="round"/>
<path d="M177.432 22.5656C178.548 22.5656 179.452 21.6613 179.452 20.5457C179.452 19.4302 178.548 18.5259 177.432 18.5259C176.317 18.5259 175.412 19.4302 175.412 20.5457C175.412 21.6613 176.317 22.5656 177.432 22.5656Z" stroke="#0080FF" stroke-width="2" stroke-linejoin="round"/>
<path d="M120.204 33.0012C121.32 33.0012 122.224 32.0969 122.224 30.9814C122.224 29.8659 121.32 28.9616 120.204 28.9616C119.089 28.9616 118.184 29.8659 118.184 30.9814C118.184 32.0969 119.089 33.0012 120.204 33.0012Z" stroke="#0080FF" stroke-width="2" stroke-linejoin="round"/>
<path d="M129.967 33.0012C131.082 33.0012 131.987 32.0969 131.987 30.9814C131.987 29.8659 131.082 28.9616 129.967 28.9616C128.851 28.9616 127.947 29.8659 127.947 30.9814C127.947 32.0969 128.851 33.0012 129.967 33.0012Z" stroke="#0080FF" stroke-width="2" stroke-linejoin="round"/>
<path d="M139.392 33.0012C140.508 33.0012 141.412 32.0969 141.412 30.9814C141.412 29.8659 140.508 28.9616 139.392 28.9616C138.277 28.9616 137.373 29.8659 137.373 30.9814C137.373 32.0969 138.277 33.0012 139.392 33.0012Z" stroke="#0080FF" stroke-width="2" stroke-linejoin="round"/>
<path d="M148.818 33.0012C149.934 33.0012 150.838 32.0969 150.838 30.9814C150.838 29.8659 149.934 28.9616 148.818 28.9616C147.703 28.9616 146.798 29.8659 146.798 30.9814C146.798 32.0969 147.703 33.0012 148.818 33.0012Z" stroke="#0080FF" stroke-width="2" stroke-linejoin="round"/>
<path d="M158.581 33.0012C159.696 33.0012 160.6 32.0969 160.6 30.9814C160.6 29.8659 159.696 28.9616 158.581 28.9616C157.465 28.9616 156.561 29.8659 156.561 30.9814C156.561 32.0969 157.465 33.0012 158.581 33.0012Z" stroke="#0080FF" stroke-width="2" stroke-linejoin="round"/>
<path d="M168.006 33.0012C169.122 33.0012 170.026 32.0969 170.026 30.9814C170.026 29.8659 169.122 28.9616 168.006 28.9616C166.891 28.9616 165.987 29.8659 165.987 30.9814C165.987 32.0969 166.891 33.0012 168.006 33.0012Z" stroke="#0080FF" stroke-width="2" stroke-linejoin="round"/>
<path d="M177.432 33.0012C178.548 33.0012 179.452 32.0969 179.452 30.9814C179.452 29.8659 178.548 28.9616 177.432 28.9616C176.317 28.9616 175.412 29.8659 175.412 30.9814C175.412 32.0969 176.317 33.0012 177.432 33.0012Z" stroke="#0080FF" stroke-width="2" stroke-linejoin="round"/>
<path d="M100.069 8.42694L96.6528 8.42694M108.086 8.42694L103.735 8.42694" stroke="#0080FF" stroke-width="2" stroke-linecap="round"/>
<path d="M184.18 72.9275C184.18 76.7935 181.046 79.9275 177.18 79.9275L114.346 79.9275L114.346 47.5283L177.18 47.5283C181.046 47.5283 184.18 50.6623 184.18 54.5283L184.18 72.9275Z" fill="#EEF7FF" stroke="#0080FF" stroke-width="2"/>
<path d="M44.5366 54.5283C44.5366 50.6623 47.6706 47.5283 51.5366 47.5283L114.37 47.5283L114.37 79.9275L51.5366 79.9275C47.6706 79.9275 44.5366 76.7935 44.5366 72.9275L44.5366 54.5283Z" fill="white" stroke="#0080FF" stroke-width="2"/>
<rect x="102.699" y="59.259" width="7.06933" height="1.34654" rx="0.673269" fill="#08FFC8"/>
<rect x="99.6694" y="62.962" width="10.099" height="1.34654" rx="0.673269" fill="#FFB92A"/>
<rect x="106.739" y="66.665" width="3.02971" height="1.34654" rx="0.673269" fill="#FFB92A"/>
<path d="M60.6203 66.665C62.4794 66.665 63.9866 65.1578 63.9866 63.2987C63.9866 61.4395 62.4794 59.9323 60.6203 59.9323C58.7611 59.9323 57.2539 61.4395 57.2539 63.2987C57.2539 65.1578 58.7611 66.665 60.6203 66.665Z" fill="#08FFC8"/>
<path d="M70.3822 66.665C72.2414 66.665 73.7486 65.1578 73.7486 63.2987C73.7486 61.4395 72.2414 59.9323 70.3822 59.9323C68.523 59.9323 67.0159 61.4395 67.0159 63.2987C67.0159 65.1578 68.523 66.665 70.3822 66.665Z" fill="#FFB92A"/>
<path d="M120.204 54.5462C121.32 54.5462 122.224 53.6419 122.224 52.5264C122.224 51.4109 121.32 50.5066 120.204 50.5066C119.089 50.5066 118.184 51.4109 118.184 52.5264C118.184 53.6419 119.089 54.5462 120.204 54.5462Z" fill="#0080FF"/>
<path d="M129.967 54.5462C131.082 54.5462 131.987 53.6419 131.987 52.5264C131.987 51.4109 131.082 50.5066 129.967 50.5066C128.851 50.5066 127.947 51.4109 127.947 52.5264C127.947 53.6419 128.851 54.5462 129.967 54.5462Z" stroke="#0080FF" stroke-width="2" stroke-linejoin="round"/>
<path d="M139.392 54.5462C140.508 54.5462 141.412 53.6419 141.412 52.5264C141.412 51.4109 140.508 50.5066 139.392 50.5066C138.277 50.5066 137.373 51.4109 137.373 52.5264C137.373 53.6419 138.277 54.5462 139.392 54.5462Z" stroke="#0080FF" stroke-width="2" stroke-linejoin="round"/>
<path d="M148.818 54.5462C149.934 54.5462 150.838 53.6419 150.838 52.5264C150.838 51.4109 149.934 50.5066 148.818 50.5066C147.703 50.5066 146.798 51.4109 146.798 52.5264C146.798 53.6419 147.703 54.5462 148.818 54.5462Z" stroke="#0080FF" stroke-width="2" stroke-linejoin="round"/>
<path d="M158.581 54.5462C159.696 54.5462 160.6 53.6419 160.6 52.5264C160.6 51.4109 159.696 50.5066 158.581 50.5066C157.465 50.5066 156.561 51.4109 156.561 52.5264C156.561 53.6419 157.465 54.5462 158.581 54.5462Z" stroke="#0080FF" stroke-width="2" stroke-linejoin="round"/>
<path d="M168.006 54.5462C169.122 54.5462 170.026 53.6419 170.026 52.5264C170.026 51.4109 169.122 50.5066 168.006 50.5066C166.891 50.5066 165.987 51.4109 165.987 52.5264C165.987 53.6419 166.891 54.5462 168.006 54.5462Z" stroke="#0080FF" stroke-width="2" stroke-linejoin="round"/>
<path d="M177.432 54.5462C178.548 54.5462 179.452 53.6419 179.452 52.5264C179.452 51.4109 178.548 50.5066 177.432 50.5066C176.317 50.5066 175.412 51.4109 175.412 52.5264C175.412 53.6419 176.317 54.5462 177.432 54.5462Z" stroke="#0080FF" stroke-width="2" stroke-linejoin="round"/>
<path d="M120.204 65.3185C121.32 65.3185 122.224 64.4142 122.224 63.2987C122.224 62.1832 121.32 61.2789 120.204 61.2789C119.089 61.2789 118.184 62.1832 118.184 63.2987C118.184 64.4142 119.089 65.3185 120.204 65.3185Z" stroke="#0080FF" stroke-width="2" stroke-linejoin="round"/>
<path d="M129.967 65.3185C131.082 65.3185 131.987 64.4142 131.987 63.2987C131.987 62.1832 131.082 61.2789 129.967 61.2789C128.851 61.2789 127.947 62.1832 127.947 63.2987C127.947 64.4142 128.851 65.3185 129.967 65.3185Z" stroke="#0080FF" stroke-width="2" stroke-linejoin="round"/>
<path d="M139.392 65.3185C140.508 65.3185 141.412 64.4142 141.412 63.2987C141.412 62.1832 140.508 61.2789 139.392 61.2789C138.277 61.2789 137.373 62.1832 137.373 63.2987C137.373 64.4142 138.277 65.3185 139.392 65.3185Z" stroke="#0080FF" stroke-width="2" stroke-linejoin="round"/>
<path d="M148.818 65.3185C149.934 65.3185 150.838 64.4142 150.838 63.2987C150.838 62.1832 149.934 61.2789 148.818 61.2789C147.703 61.2789 146.798 62.1832 146.798 63.2987C146.798 64.4142 147.703 65.3185 148.818 65.3185Z" fill="#0080FF"/>
<path d="M158.581 65.3185C159.696 65.3185 160.6 64.4142 160.6 63.2987C160.6 62.1832 159.696 61.2789 158.581 61.2789C157.465 61.2789 156.561 62.1832 156.561 63.2987C156.561 64.4142 157.465 65.3185 158.581 65.3185Z" stroke="#0080FF" stroke-width="2" stroke-linejoin="round"/>
<path d="M168.006 65.3185C169.122 65.3185 170.026 64.4142 170.026 63.2987C170.026 62.1832 169.122 61.2789 168.006 61.2789C166.891 61.2789 165.987 62.1832 165.987 63.2987C165.987 64.4142 166.891 65.3185 168.006 65.3185Z" stroke="#0080FF" stroke-width="2" stroke-linejoin="round"/>
<path d="M177.432 65.3185C178.548 65.3185 179.452 64.4142 179.452 63.2987C179.452 62.1832 178.548 61.2789 177.432 61.2789C176.317 61.2789 175.412 62.1832 175.412 63.2987C175.412 64.4142 176.317 65.3185 177.432 65.3185Z" stroke="#0080FF" stroke-width="2" stroke-linejoin="round"/>
<path d="M120.204 75.7541C121.32 75.7541 122.224 74.8498 122.224 73.7343C122.224 72.6188 121.32 71.7145 120.204 71.7145C119.089 71.7145 118.184 72.6188 118.184 73.7343C118.184 74.8498 119.089 75.7541 120.204 75.7541Z" stroke="#0080FF" stroke-width="2" stroke-linejoin="round"/>
<path d="M129.967 75.7541C131.082 75.7541 131.987 74.8498 131.987 73.7343C131.987 72.6188 131.082 71.7145 129.967 71.7145C128.851 71.7145 127.947 72.6188 127.947 73.7343C127.947 74.8498 128.851 75.7541 129.967 75.7541Z" stroke="#0080FF" stroke-width="2" stroke-linejoin="round"/>
<path d="M139.392 75.7541C140.508 75.7541 141.412 74.8498 141.412 73.7343C141.412 72.6188 140.508 71.7145 139.392 71.7145C138.277 71.7145 137.373 72.6188 137.373 73.7343C137.373 74.8498 138.277 75.7541 139.392 75.7541Z" stroke="#0080FF" stroke-width="2" stroke-linejoin="round"/>
<path d="M148.818 75.7541C149.934 75.7541 150.838 74.8498 150.838 73.7343C150.838 72.6188 149.934 71.7145 148.818 71.7145C147.703 71.7145 146.798 72.6188 146.798 73.7343C146.798 74.8498 147.703 75.7541 148.818 75.7541Z" stroke="#0080FF" stroke-width="2" stroke-linejoin="round"/>
<path d="M158.581 75.7541C159.696 75.7541 160.6 74.8498 160.6 73.7343C160.6 72.6188 159.696 71.7145 158.581 71.7145C157.465 71.7145 156.561 72.6188 156.561 73.7343C156.561 74.8498 157.465 75.7541 158.581 75.7541Z" fill="#0080FF"/>
<path d="M168.006 75.7541C169.122 75.7541 170.026 74.8498 170.026 73.7343C170.026 72.6188 169.122 71.7145 168.006 71.7145C166.891 71.7145 165.987 72.6188 165.987 73.7343C165.987 74.8498 166.891 75.7541 168.006 75.7541Z" stroke="#0080FF" stroke-width="2" stroke-linejoin="round"/>
<path d="M177.432 75.7541C178.548 75.7541 179.452 74.8498 179.452 73.7343C179.452 72.6188 178.548 71.7145 177.432 71.7145C176.317 71.7145 175.412 72.6188 175.412 73.7343C175.412 74.8498 176.317 75.7541 177.432 75.7541Z" stroke="#0080FF" stroke-width="2" stroke-linejoin="round"/>
<path d="M54.1102 75.7541L60.115 75.7541M65.7947 75.7541L64.2771 75.7541" stroke="#0080FF" stroke-width="2" stroke-linecap="round"/>
<path d="M184.18 115.42C184.18 119.286 181.046 122.42 177.18 122.42L114.346 122.42L114.346 90.0213L177.18 90.0213C181.046 90.0213 184.18 93.1553 184.18 97.0213L184.18 115.42Z" fill="white" stroke="#0080FF" stroke-width="2"/>
<path d="M44.5366 97.0214C44.5366 93.1554 47.6706 90.0214 51.5366 90.0214L114.37 90.0213L114.37 122.421L51.5366 122.421C47.6706 122.421 44.5366 119.287 44.5366 115.421L44.5366 97.0214Z" fill="white" stroke="#0080FF" stroke-width="2"/>
<rect x="104.045" y="102.011" width="5.72279" height="1.34654" rx="0.673269" fill="#08FFC8"/>
<rect x="105.056" y="105.714" width="4.71288" height="1.34654" rx="0.673269" fill="#FFB92A"/>
<rect x="102.699" y="109.417" width="7.06933" height="1.34654" rx="0.673269" fill="#08FFC8"/>
<path d="M60.6203 109.417C62.4794 109.417 63.9866 107.91 63.9866 106.051C63.9866 104.192 62.4794 102.685 60.6203 102.685C58.7611 102.685 57.2539 104.192 57.2539 106.051C57.2539 107.91 58.7611 109.417 60.6203 109.417Z" fill="#08FFC8"/>
<path d="M70.3822 109.417C72.2414 109.417 73.7486 107.91 73.7486 106.051C73.7486 104.192 72.2414 102.685 70.3822 102.685C68.523 102.685 67.0159 104.192 67.0159 106.051C67.0159 107.91 68.523 109.417 70.3822 109.417Z" fill="#FFB92A"/>
<path d="M148.482 97.2985C149.597 97.2985 150.502 96.3942 150.502 95.2787C150.502 94.1631 149.597 93.2589 148.482 93.2589C147.366 93.2589 146.462 94.1631 146.462 95.2787C146.462 96.3942 147.366 97.2985 148.482 97.2985Z" fill="#0080FF"/>
<path d="M120.204 97.2985C121.32 97.2985 122.224 96.3942 122.224 95.2787C122.224 94.1631 121.32 93.2589 120.204 93.2589C119.089 93.2589 118.184 94.1631 118.184 95.2787C118.184 96.3942 119.089 97.2985 120.204 97.2985Z" stroke="#0080FF" stroke-width="2" stroke-linejoin="round"/>
<path d="M129.63 97.2985C130.745 97.2985 131.65 96.3942 131.65 95.2787C131.65 94.1631 130.745 93.2589 129.63 93.2589C128.514 93.2589 127.61 94.1631 127.61 95.2787C127.61 96.3942 128.514 97.2985 129.63 97.2985Z" stroke="#0080FF" stroke-width="2" stroke-linejoin="round"/>
<path d="M139.056 97.2985C140.171 97.2985 141.076 96.3942 141.076 95.2787C141.076 94.1631 140.171 93.2589 139.056 93.2589C137.94 93.2589 137.036 94.1631 137.036 95.2787C137.036 96.3942 137.94 97.2985 139.056 97.2985Z" stroke="#0080FF" stroke-width="2" stroke-linejoin="round"/>
<path d="M158.581 97.2985C159.696 97.2985 160.6 96.3942 160.6 95.2787C160.6 94.1631 159.696 93.2589 158.581 93.2589C157.465 93.2589 156.561 94.1631 156.561 95.2787C156.561 96.3942 157.465 97.2985 158.581 97.2985Z" stroke="#0080FF" stroke-width="2" stroke-linejoin="round"/>
<path d="M168.006 97.2985C169.122 97.2985 170.026 96.3942 170.026 95.2787C170.026 94.1631 169.122 93.2589 168.006 93.2589C166.891 93.2589 165.987 94.1631 165.987 95.2787C165.987 96.3942 166.891 97.2985 168.006 97.2985Z" stroke="#0080FF" stroke-width="2" stroke-linejoin="round"/>
<path d="M177.432 97.2985C178.548 97.2985 179.452 96.3942 179.452 95.2787C179.452 94.1631 178.548 93.2589 177.432 93.2589C176.317 93.2589 175.412 94.1631 175.412 95.2787C175.412 96.3942 176.317 97.2985 177.432 97.2985Z" stroke="#0080FF" stroke-width="2" stroke-linejoin="round"/>
<path d="M120.204 108.071C121.32 108.071 122.224 107.166 122.224 106.051C122.224 104.935 121.32 104.031 120.204 104.031C119.089 104.031 118.184 104.935 118.184 106.051C118.184 107.166 119.089 108.071 120.204 108.071Z" stroke="#0080FF" stroke-width="2" stroke-linejoin="round"/>
<path d="M129.967 108.071C131.082 108.071 131.987 107.166 131.987 106.051C131.987 104.935 131.082 104.031 129.967 104.031C128.851 104.031 127.947 104.935 127.947 106.051C127.947 107.166 128.851 108.071 129.967 108.071Z" stroke="#0080FF" stroke-width="2" stroke-linejoin="round"/>
<path d="M139.392 108.071C140.508 108.071 141.412 107.166 141.412 106.051C141.412 104.935 140.508 104.031 139.392 104.031C138.277 104.031 137.373 104.935 137.373 106.051C137.373 107.166 138.277 108.071 139.392 108.071Z" stroke="#0080FF" stroke-width="2" stroke-linejoin="round"/>
<path d="M168.343 108.071C169.458 108.071 170.363 107.166 170.363 106.051C170.363 104.935 169.458 104.031 168.343 104.031C167.227 104.031 166.323 104.935 166.323 106.051C166.323 107.166 167.227 108.071 168.343 108.071Z" fill="#0080FF"/>
<path d="M148.818 108.071C149.934 108.071 150.838 107.166 150.838 106.051C150.838 104.935 149.934 104.031 148.818 104.031C147.703 104.031 146.798 104.935 146.798 106.051C146.798 107.166 147.703 108.071 148.818 108.071Z" stroke="#0080FF" stroke-width="2" stroke-linejoin="round"/>
<path d="M158.581 108.071C159.696 108.071 160.6 107.166 160.6 106.051C160.6 104.935 159.696 104.031 158.581 104.031C157.465 104.031 156.561 104.935 156.561 106.051C156.561 107.166 157.465 108.071 158.581 108.071Z" stroke="#0080FF" stroke-width="2" stroke-linejoin="round"/>
<path d="M177.432 108.071C178.548 108.071 179.452 107.166 179.452 106.051C179.452 104.935 178.548 104.031 177.432 104.031C176.317 104.031 175.412 104.935 175.412 106.051C175.412 107.166 176.317 108.071 177.432 108.071Z" stroke="#0080FF" stroke-width="2" stroke-linejoin="round"/>
<path d="M120.204 118.506C121.32 118.506 122.224 117.602 122.224 116.487C122.224 115.371 121.32 114.467 120.204 114.467C119.089 114.467 118.184 115.371 118.184 116.487C118.184 117.602 119.089 118.506 120.204 118.506Z" stroke="#0080FF" stroke-width="2" stroke-linejoin="round"/>
<path d="M139.392 118.506C140.508 118.506 141.412 117.602 141.412 116.487C141.412 115.371 140.508 114.467 139.392 114.467C138.277 114.467 137.373 115.371 137.373 116.487C137.373 117.602 138.277 118.506 139.392 118.506Z" stroke="#0080FF" stroke-width="2" stroke-linejoin="round"/>
<path d="M148.818 118.506C149.934 118.506 150.838 117.602 150.838 116.487C150.838 115.371 149.934 114.467 148.818 114.467C147.703 114.467 146.798 115.371 146.798 116.487C146.798 117.602 147.703 118.506 148.818 118.506Z" stroke="#0080FF" stroke-width="2" stroke-linejoin="round"/>
<path d="M158.244 118.506C159.36 118.506 160.264 117.602 160.264 116.487C160.264 115.371 159.36 114.467 158.244 114.467C157.129 114.467 156.224 115.371 156.224 116.487C156.224 117.602 157.129 118.506 158.244 118.506Z" stroke="#0080FF" stroke-width="2" stroke-linejoin="round"/>
<path d="M129.967 118.506C131.082 118.506 131.987 117.602 131.987 116.487C131.987 115.371 131.082 114.467 129.967 114.467C128.851 114.467 127.947 115.371 127.947 116.487C127.947 117.602 128.851 118.506 129.967 118.506Z" fill="#0080FF"/>
<path d="M168.006 118.506C169.122 118.506 170.026 117.602 170.026 116.487C170.026 115.371 169.122 114.467 168.006 114.467C166.891 114.467 165.987 115.371 165.987 116.487C165.987 117.602 166.891 118.506 168.006 118.506Z" stroke="#0080FF" stroke-width="2" stroke-linejoin="round"/>
<path d="M177.432 118.506C178.548 118.506 179.452 117.602 179.452 116.487C179.452 115.371 178.548 114.467 177.432 114.467C176.317 114.467 175.412 115.371 175.412 116.487C175.412 117.602 176.317 118.506 177.432 118.506Z" stroke="#0080FF" stroke-width="2" stroke-linejoin="round"/>
<path d="M61.748 118.506L56.6893 118.506M49.1747 99.15L49.1747 115.506C49.1747 117.163 50.5178 118.506 52.1747 118.506L53.2143 118.506" stroke="#0080FF" stroke-width="2" stroke-linecap="round"/>
<path d="M184.18 160.949C184.18 164.815 181.046 167.949 177.18 167.949L115.358 167.949L115.358 135.55L177.18 135.55C181.046 135.55 184.18 138.684 184.18 142.55L184.18 160.949Z" fill="#EEF7FF" stroke="#0080FF" stroke-width="2"/>
<path d="M45.5483 142.55C45.5483 138.684 48.6823 135.55 52.5483 135.55L115.382 135.55L115.382 167.949L52.5483 167.949C48.6824 167.949 45.5483 164.815 45.5483 160.949L45.5483 142.55Z" fill="white" stroke="#0080FF" stroke-width="2"/>
<rect x="105.543" y="147.204" width="4.30228" height="1.43409" rx="0.717047" fill="#08FFC8"/>
<rect x="100.284" y="151.029" width="9.56062" height="1.43409" rx="0.717047" fill="#FFB92A"/>
<rect x="107.933" y="154.853" width="1.91212" height="1.43409" rx="0.717047" fill="#08FFC8"/>
<path d="M60.903 154.832C62.7621 154.832 64.2693 153.325 64.2693 151.466C64.2693 149.607 62.7621 148.1 60.903 148.1C59.0438 148.1 57.5366 149.607 57.5366 151.466C57.5366 153.325 59.0438 154.832 60.903 154.832Z" fill="#08FFC8"/>
<path d="M70.6659 154.832C72.5251 154.832 74.0323 153.325 74.0323 151.466C74.0323 149.607 72.5251 148.1 70.6659 148.1C68.8067 148.1 67.2996 149.607 67.2996 151.466C67.2996 153.325 68.8067 154.832 70.6659 154.832Z" fill="#FFB92A"/>
<path d="M129.913 142.713C131.029 142.713 131.933 141.809 131.933 140.694C131.933 139.578 131.029 138.674 129.913 138.674C128.798 138.674 127.893 139.578 127.893 140.694C127.893 141.809 128.798 142.713 129.913 142.713Z" fill="#0080FF"/>
<path d="M120.488 142.713C121.603 142.713 122.508 141.809 122.508 140.694C122.508 139.578 121.603 138.674 120.488 138.674C119.372 138.674 118.468 139.578 118.468 140.694C118.468 141.809 119.372 142.713 120.488 142.713Z" stroke="#0080FF" stroke-width="2" stroke-linejoin="round"/>
<path d="M139.211 142.713C140.327 142.713 141.231 141.809 141.231 140.694C141.231 139.578 140.327 138.674 139.211 138.674C138.096 138.674 137.191 139.578 137.191 140.694C137.191 141.809 138.096 142.713 139.211 142.713Z" stroke="#0080FF" stroke-width="2" stroke-linejoin="round"/>
<path d="M148.51 142.713C149.625 142.713 150.529 141.809 150.529 140.694C150.529 139.578 149.625 138.674 148.51 138.674C147.394 138.674 146.49 139.578 146.49 140.694C146.49 141.809 147.394 142.713 148.51 142.713Z" stroke="#0080FF" stroke-width="2" stroke-linejoin="round"/>
<path d="M158.864 142.714C159.979 142.714 160.884 141.809 160.884 140.694C160.884 139.578 159.979 138.674 158.864 138.674C157.748 138.674 156.844 139.578 156.844 140.694C156.844 141.809 157.748 142.714 158.864 142.714Z" stroke="#0080FF" stroke-width="2" stroke-linejoin="round"/>
<path d="M168.29 142.714C169.406 142.714 170.31 141.809 170.31 140.694C170.31 139.578 169.406 138.674 168.29 138.674C167.175 138.674 166.27 139.578 166.27 140.694C166.27 141.809 167.175 142.714 168.29 142.714Z" stroke="#0080FF" stroke-width="2" stroke-linejoin="round"/>
<path d="M177.716 142.714C178.831 142.714 179.735 141.809 179.735 140.694C179.735 139.578 178.831 138.674 177.716 138.674C176.6 138.674 175.696 139.578 175.696 140.694C175.696 141.809 176.6 142.714 177.716 142.714Z" stroke="#0080FF" stroke-width="2" stroke-linejoin="round"/>
<path d="M120.488 153.486C121.603 153.486 122.508 152.582 122.508 151.466C122.508 150.351 121.603 149.446 120.488 149.446C119.372 149.446 118.468 150.351 118.468 151.466C118.468 152.582 119.372 153.486 120.488 153.486Z" stroke="#0080FF" stroke-width="2" stroke-linejoin="round"/>
<path d="M130.25 153.486C131.366 153.486 132.27 152.582 132.27 151.466C132.27 150.351 131.366 149.446 130.25 149.446C129.135 149.446 128.23 150.351 128.23 151.466C128.23 152.582 129.135 153.486 130.25 153.486Z" stroke="#0080FF" stroke-width="2" stroke-linejoin="round"/>
<path d="M139.676 153.486C140.791 153.486 141.695 152.582 141.695 151.466C141.695 150.351 140.791 149.446 139.676 149.446C138.56 149.446 137.656 150.351 137.656 151.466C137.656 152.582 138.56 153.486 139.676 153.486Z" stroke="#0080FF" stroke-width="2" stroke-linejoin="round"/>
<path d="M158.877 153.486C159.993 153.486 160.897 152.582 160.897 151.466C160.897 150.351 159.993 149.446 158.877 149.446C157.762 149.446 156.857 150.351 156.857 151.466C156.857 152.582 157.762 153.486 158.877 153.486Z" fill="#0080FF"/>
<path d="M168.653 153.486C169.769 153.486 170.673 152.582 170.673 151.466C170.673 150.351 169.769 149.446 168.653 149.446C167.538 149.446 166.634 150.351 166.634 151.466C166.634 152.582 167.538 153.486 168.653 153.486Z" stroke="#0080FF" stroke-width="2" stroke-linejoin="round"/>
<path d="M149.101 153.486C150.217 153.486 151.121 152.582 151.121 151.466C151.121 150.351 150.217 149.446 149.101 149.446C147.986 149.446 147.082 150.351 147.082 151.466C147.082 152.582 147.986 153.486 149.101 153.486Z" stroke="#0080FF" stroke-width="2" stroke-linejoin="round"/>
<path d="M177.716 153.486C178.831 153.486 179.735 152.582 179.735 151.466C179.735 150.351 178.831 149.446 177.716 149.446C176.6 149.446 175.696 150.351 175.696 151.466C175.696 152.582 176.6 153.486 177.716 153.486Z" stroke="#0080FF" stroke-width="2" stroke-linejoin="round"/>
<path d="M120.488 163.921C121.603 163.921 122.508 163.017 122.508 161.902C122.508 160.786 121.603 159.882 120.488 159.882C119.372 159.882 118.468 160.786 118.468 161.902C118.468 163.017 119.372 163.921 120.488 163.921Z" stroke="#0080FF" stroke-width="2" stroke-linejoin="round"/>
<path d="M139.676 163.921C140.791 163.921 141.695 163.017 141.695 161.902C141.695 160.786 140.791 159.882 139.676 159.882C138.56 159.882 137.656 160.786 137.656 161.902C137.656 163.017 138.56 163.921 139.676 163.921Z" stroke="#0080FF" stroke-width="2" stroke-linejoin="round"/>
<path d="M130.25 163.921C131.366 163.921 132.27 163.017 132.27 161.902C132.27 160.786 131.366 159.882 130.25 159.882C129.135 159.882 128.23 160.786 128.23 161.902C128.23 163.017 129.135 163.921 130.25 163.921Z" stroke="#0080FF" stroke-width="2" stroke-linejoin="round"/>
<path d="M158.527 163.921C159.643 163.921 160.547 163.017 160.547 161.902C160.547 160.786 159.643 159.882 158.527 159.882C157.412 159.882 156.508 160.786 156.508 161.902C156.508 163.017 157.412 163.921 158.527 163.921Z" stroke="#0080FF" stroke-width="2" stroke-linejoin="round"/>
<path d="M149.108 163.921C150.223 163.921 151.128 163.017 151.128 161.902C151.128 160.786 150.223 159.882 149.108 159.882C147.992 159.882 147.088 160.786 147.088 161.902C147.088 163.017 147.992 163.921 149.108 163.921Z" fill="#0080FF"/>
<path d="M168.29 163.921C169.406 163.921 170.31 163.017 170.31 161.902C170.31 160.786 169.406 159.882 168.29 159.882C167.175 159.882 166.27 160.786 166.27 161.902C166.27 163.017 167.175 163.921 168.29 163.921Z" stroke="#0080FF" stroke-width="2" stroke-linejoin="round"/>
<path d="M177.716 163.921C178.831 163.921 179.735 163.017 179.735 161.902C179.735 160.786 178.831 159.882 177.716 159.882C176.6 159.882 175.696 160.786 175.696 161.902C175.696 163.017 176.6 163.921 177.716 163.921Z" stroke="#0080FF" stroke-width="2" stroke-linejoin="round"/>
<path d="M61.7479 163.921L57.701 163.921M49.4581 144.565L49.4581 160.921C49.4581 162.578 50.8013 163.921 52.4581 163.921L53.4978 163.921M65.7949 163.921L66.8066 163.921" stroke="#0080FF" stroke-width="2" stroke-linecap="round"/>
<path d="M187.615 15.3068V21.6174M187.615 24.6874V25.8813" stroke="#0080FF" stroke-width="2" stroke-linecap="round"/>
<path d="M111.338 92.4388V94.3967M111.338 97.8649C111.338 97.8649 111.338 98.2074 111.338 98.4268" stroke="#0080FF" stroke-width="2" stroke-linecap="round"/>
<path d="M79.1147 40.3714L85.3381 40.6038M88.3658 40.7168L89.5432 40.7608" stroke="#0080FF" stroke-width="2" stroke-linecap="round"/>
<path d="M79.1147 130.951L85.3381 131.184M88.3658 131.297L89.5432 131.341" stroke="#0080FF" stroke-width="2" stroke-linecap="round"/>
<path d="M65.3079 1H75.8824" stroke="#0080FF" stroke-width="2" stroke-linecap="round"/>
<path d="M78.3704 1H81.4308M85.5113 1H103.874" stroke="#0080FF" stroke-width="2" stroke-linecap="round"/>
<path d="M151.478 80.9275H147.746" stroke="white" stroke-width="2" stroke-linecap="round"/>
<path d="M75.9124 82.9509L83.3767 83.5729" stroke="#0080FF" stroke-width="2" stroke-linecap="round"/>
<line x1="435" y1="168.949" x2="1" y2="168.949" stroke="#0080FF" stroke-width="2" stroke-linecap="round"/>
<path d="M234.716 99.2378C234.716 95.3718 237.85 92.2378 241.716 92.2378H331.899C335.765 92.2378 338.899 95.3718 338.899 99.2378V159.753C338.899 161.41 337.556 162.753 335.899 162.753H237.716C236.059 162.753 234.716 161.41 234.716 159.753V99.2378Z" fill="white" stroke="#0080FF" stroke-width="2"/>
<path d="M330.834 117.999V128.359" stroke="#0080FF" stroke-width="2" stroke-linecap="round" stroke-linejoin="round"/>
<path d="M251.413 98.144H254.003" stroke="#0080FF" stroke-width="2" stroke-linecap="round" stroke-linejoin="round"/>
<path d="M228.673 164.041C228.673 163.481 229.127 163.026 229.687 163.026H343.064C343.624 163.026 344.078 163.481 344.078 164.041C344.078 165.713 342.723 167.069 341.05 167.069H231.701C230.029 167.069 228.673 165.713 228.673 164.041Z" fill="white" stroke="#0080FF" stroke-width="2"/>
<circle cx="287.239" cy="127.495" r="6.90621" fill="#08FFC8"/>
<path d="M257.888 98.144H268.247" stroke="#0080FF" stroke-width="2" stroke-linecap="round" stroke-linejoin="round"/>
<path d="M430.515 74.9105L383.743 81.195C379.364 81.7834 376.291 85.8102 376.88 90.1891L380.502 117.15C381.09 121.529 385.117 124.602 389.496 124.013L436.269 117.729C440.647 117.141 443.72 113.114 443.132 108.735L439.509 81.7739C438.921 77.395 434.894 74.3222 430.515 74.9105Z" fill="white" stroke="#0080FF" stroke-width="2" stroke-linejoin="round"/>
<path d="M409.362 94.6687L410.65 104.255" stroke="#0080FF" stroke-width="2" stroke-linecap="round" stroke-linejoin="round"/>
<path d="M397.219 96.3004L398.508 105.887" stroke="#0080FF" stroke-width="2" stroke-linecap="round" stroke-linejoin="round"/>
<path d="M417.031 93.6384L418.319 103.225" stroke="#0080FF" stroke-width="2" stroke-linecap="round" stroke-linejoin="round"/>
<path d="M412.853 91.5971L414.828 106.296" stroke="#0080FF" stroke-width="2" stroke-linecap="round" stroke-linejoin="round"/>
<path d="M405.699 96.462L406.644 103.492" stroke="#0080FF" stroke-width="2" stroke-linecap="round" stroke-linejoin="round"/>
<path d="M389.722 98.6088L390.666 105.639" stroke="#0080FF" stroke-width="2" stroke-linecap="round" stroke-linejoin="round"/>
<path d="M421.037 94.4011L421.981 101.431" stroke="#0080FF" stroke-width="2" stroke-linecap="round" stroke-linejoin="round"/>
<path d="M429.345 93.285L430.29 100.315" stroke="#0080FF" stroke-width="2" stroke-linecap="round" stroke-linejoin="round"/>
<path d="M402.036 98.2555L402.637 102.729" stroke="#0080FF" stroke-width="2" stroke-linecap="round" stroke-linejoin="round"/>
<path d="M393.729 99.3718L394.33 103.845" stroke="#0080FF" stroke-width="2" stroke-linecap="round" stroke-linejoin="round"/>
<path d="M386.06 100.402L386.661 104.876" stroke="#0080FF" stroke-width="2" stroke-linecap="round" stroke-linejoin="round"/>
<path d="M425.682 95.0782L426.283 99.5518" stroke="#0080FF" stroke-width="2" stroke-linecap="round" stroke-linejoin="round"/>
<path d="M433.351 94.0479L433.952 98.5214" stroke="#0080FF" stroke-width="2" stroke-linecap="round" stroke-linejoin="round"/>
<path d="M415.504 81.8396L419.977 81.2385M424.857 80.5828L426.484 80.3642" stroke="#0080FF" stroke-width="2" stroke-linecap="round" stroke-linejoin="round"/>
<path d="M375.978 117.375L376.128 118.496C377.011 125.064 383.051 129.674 389.619 128.791L390.333 128.695" stroke="#0080FF" stroke-width="2" stroke-linecap="round" stroke-linejoin="round"/>
<path d="M260.085 56.1779C261.981 60.1683 260.284 64.9408 256.293 66.8375L231.018 78.851C227.028 80.7477 222.255 79.0503 220.358 75.0599L205.681 44.1802C204.834 42.397 204.675 40.3633 205.237 38.4705L206.469 34.3193C207.114 32.1432 208.654 30.3439 210.704 29.3695L233.365 18.5985C237.356 16.7018 242.128 18.3991 244.025 22.3896L260.085 56.1779Z" fill="white" stroke="#0080FF" stroke-width="2" stroke-linejoin="round"/>
<path d="M213.708 70.21L215.776 74.5594M212.581 67.8376L211.453 65.4651" stroke="#0080FF" stroke-width="2" stroke-linecap="round" stroke-linejoin="round"/>
<path d="M244.919 66.5247L248.478 64.8332" stroke="#0080FF" stroke-width="2" stroke-linecap="round" stroke-linejoin="round"/>
<path d="M214.098 39.9316L236.798 29.1419" stroke="#0080FF" stroke-width="2" stroke-linecap="round" stroke-linejoin="round"/>
<path d="M218.144 48.4443L240.845 37.6546" stroke="#0080FF" stroke-width="2" stroke-linecap="round" stroke-linejoin="round"/>
<path d="M221.852 56.2476L233.203 50.8528" stroke="#0080FF" stroke-width="2" stroke-linecap="round" stroke-linejoin="round"/>
</svg>
