<svg width="147" height="104" viewBox="0 0 147 104" fill="none" xmlns="http://www.w3.org/2000/svg">
<path d="M141.034 70.3995L118.974 73.3635C117.332 73.5842 116.18 75.0942 116.4 76.7363L118.174 89.937C118.395 91.5791 119.905 92.7314 121.547 92.5107L143.607 89.5467C145.249 89.3261 146.401 87.816 146.181 86.1739L144.407 72.9733C144.186 71.3312 142.676 70.1788 141.034 70.3995Z" fill="white" stroke="#0080FF" stroke-linejoin="round"/>
<path d="M131.003 79.3117L131.579 83.5984" stroke="#0080FF" stroke-linecap="round" stroke-linejoin="round"/>
<path d="M125.573 80.0413L126.149 84.328" stroke="#0080FF" stroke-linecap="round" stroke-linejoin="round"/>
<path d="M134.432 78.851L135.008 83.1376" stroke="#0080FF" stroke-linecap="round" stroke-linejoin="round"/>
<path d="M132.563 77.9382L133.447 84.5111" stroke="#0080FF" stroke-linecap="round" stroke-linejoin="round"/>
<path d="M129.365 80.1136L129.788 83.2572" stroke="#0080FF" stroke-linecap="round" stroke-linejoin="round"/>
<path d="M122.221 81.0736L122.643 84.2172" stroke="#0080FF" stroke-linecap="round" stroke-linejoin="round"/>
<path d="M136.224 79.192L136.646 82.3356" stroke="#0080FF" stroke-linecap="round" stroke-linejoin="round"/>
<path d="M139.938 78.693L140.361 81.8365" stroke="#0080FF" stroke-linecap="round" stroke-linejoin="round"/>
<path d="M127.727 80.9156L127.995 82.9161" stroke="#0080FF" stroke-linecap="round" stroke-linejoin="round"/>
<path d="M124.012 81.4148L124.281 83.4152" stroke="#0080FF" stroke-linecap="round" stroke-linejoin="round"/>
<path d="M120.583 81.8756L120.852 83.876" stroke="#0080FF" stroke-linecap="round" stroke-linejoin="round"/>
<path d="M138.301 79.4948L138.57 81.4953" stroke="#0080FF" stroke-linecap="round" stroke-linejoin="round"/>
<path d="M141.73 79.0341L141.999 81.0345" stroke="#0080FF" stroke-linecap="round" stroke-linejoin="round"/>
<path d="M133.749 73.5749L135.749 73.3061M137.932 73.0129L138.659 72.9151" stroke="#0080FF" stroke-linecap="round" stroke-linejoin="round"/>
<path d="M116.074 89.4653L116.457 92.3116C116.677 93.9537 118.187 95.106 119.829 94.8853L122.494 94.5273" stroke="#0080FF" stroke-linecap="round" stroke-linejoin="round"/>
<path d="M32.9443 13.3259H96.0332V87.0962H32.9443V13.3259Z" fill="white" stroke="#0080FF"/>
<path d="M32.9443 9.12965H95.6517V24.8976L32.9443 22.769V9.12965Z" fill="#0080FF" stroke="#0080FF"/>
<path d="M95.6517 51.2212L60.2846 50.1213L95.6517 49.9506V51.2212Z" fill="#0080FF" stroke="#0080FF"/>
<path d="M95.6517 77.9222L56.3095 76.4948L95.6517 76.2731V77.9222Z" fill="#0080FF" stroke="#0080FF"/>
<path d="M107.367 19.9578C107.367 21.8908 105.8 23.4578 103.867 23.4578L64.9335 23.4578L64.9335 2.74093L103.867 2.74092C105.8 2.74092 107.367 4.30793 107.367 6.24092L107.367 19.9578Z" fill="white" stroke="#0080FF"/>
<path d="M21.5 6.24098C21.5 4.30799 23.067 2.74098 25 2.74098L65.1747 2.74097L65.1747 23.4578L25 23.4578C23.067 23.4578 21.5 21.8908 21.5 19.9578L21.5 6.24098Z" fill="white" stroke="#0080FF"/>
<rect x="62.6514" y="15.6709" width="3.92258" height="0.825808" rx="0.412904" transform="rotate(180 62.6514 15.6709)" fill="#08FFC8"/>
<rect x="62.6514" y="13.3999" width="4.74839" height="0.825808" rx="0.412904" transform="rotate(180 62.6514 13.3999)" fill="#FFB92A"/>
<rect x="62.6514" y="11.129" width="2.06452" height="0.825808" rx="0.412904" transform="rotate(180 62.6514 11.129)" fill="#08FFC8"/>
<path d="M31.4776 15.0515C32.6178 15.0515 33.5421 14.1272 33.5421 12.987C33.5421 11.8468 32.6178 10.9225 31.4776 10.9225C30.3374 10.9225 29.4131 11.8468 29.4131 12.987C29.4131 14.1272 30.3374 15.0515 31.4776 15.0515Z" fill="#08FFC8"/>
<path d="M37.4639 15.0515C38.6041 15.0515 39.5285 14.1272 39.5285 12.987C39.5285 11.8468 38.6041 10.9225 37.4639 10.9225C36.3237 10.9225 35.3994 11.8468 35.3994 12.987C35.3994 14.1272 36.3237 15.0515 37.4639 15.0515Z" fill="#FFB92A"/>
<path d="M68.019 7.61928C68.7031 7.61928 69.2577 7.06469 69.2577 6.38057C69.2577 5.69645 68.7031 5.14186 68.019 5.14186C67.3349 5.14186 66.7803 5.69645 66.7803 6.38057C66.7803 7.06469 67.3349 7.61928 68.019 7.61928Z" stroke="#0080FF" stroke-linejoin="round"/>
<path d="M74.0063 7.61928C74.6904 7.61928 75.245 7.06469 75.245 6.38057C75.245 5.69645 74.6904 5.14186 74.0063 5.14186C73.3222 5.14186 72.7676 5.69645 72.7676 6.38057C72.7676 7.06469 73.3222 7.61928 74.0063 7.61928Z" stroke="#0080FF" stroke-linejoin="round"/>
<path d="M79.7866 7.61928C80.4707 7.61928 81.0253 7.06469 81.0253 6.38057C81.0253 5.69645 80.4707 5.14186 79.7866 5.14186C79.1024 5.14186 78.5479 5.69645 78.5479 6.38057C78.5479 7.06469 79.1024 7.61928 79.7866 7.61928Z" stroke="#0080FF" stroke-linejoin="round"/>
<path d="M85.5668 7.61928C86.251 7.61928 86.8055 7.06469 86.8055 6.38057C86.8055 5.69645 86.251 5.14186 85.5668 5.14186C84.8827 5.14186 84.3281 5.69645 84.3281 6.38057C84.3281 7.06469 84.8827 7.61928 85.5668 7.61928Z" stroke="#0080FF" stroke-linejoin="round"/>
<path d="M91.5551 7.61928C92.2392 7.61928 92.7938 7.06469 92.7938 6.38057C92.7938 5.69645 92.2392 5.14186 91.5551 5.14186C90.871 5.14186 90.3164 5.69645 90.3164 6.38057C90.3164 7.06469 90.871 7.61928 91.5551 7.61928Z" fill="#0080FF"/>
<path d="M97.3354 7.61928C98.0195 7.61928 98.5741 7.06469 98.5741 6.38057C98.5741 5.69645 98.0195 5.14186 97.3354 5.14186C96.6513 5.14186 96.0967 5.69645 96.0967 6.38057C96.0967 7.06469 96.6513 7.61928 97.3354 7.61928Z" stroke="#0080FF" stroke-linejoin="round"/>
<path d="M103.116 7.61928C103.8 7.61928 104.354 7.06469 104.354 6.38057C104.354 5.69645 103.8 5.14186 103.116 5.14186C102.432 5.14186 101.877 5.69645 101.877 6.38057C101.877 7.06469 102.432 7.61928 103.116 7.61928Z" stroke="#0080FF" stroke-linejoin="round"/>
<path d="M68.019 14.2257C68.7031 14.2257 69.2577 13.6712 69.2577 12.987C69.2577 12.3029 68.7031 11.7483 68.019 11.7483C67.3349 11.7483 66.7803 12.3029 66.7803 12.987C66.7803 13.6712 67.3349 14.2257 68.019 14.2257Z" fill="#0080FF"/>
<path d="M74.0063 14.2257C74.6904 14.2257 75.245 13.6712 75.245 12.987C75.245 12.3029 74.6904 11.7483 74.0063 11.7483C73.3222 11.7483 72.7676 12.3029 72.7676 12.987C72.7676 13.6712 73.3222 14.2257 74.0063 14.2257Z" fill="#0080FF"/>
<path d="M79.7866 14.2257C80.4707 14.2257 81.0253 13.6712 81.0253 12.987C81.0253 12.3029 80.4707 11.7483 79.7866 11.7483C79.1024 11.7483 78.5479 12.3029 78.5479 12.987C78.5479 13.6712 79.1024 14.2257 79.7866 14.2257Z" stroke="#0080FF" stroke-linejoin="round"/>
<path d="M85.5668 14.2257C86.251 14.2257 86.8055 13.6712 86.8055 12.987C86.8055 12.3029 86.251 11.7483 85.5668 11.7483C84.8827 11.7483 84.3281 12.3029 84.3281 12.987C84.3281 13.6712 84.8827 14.2257 85.5668 14.2257Z" stroke="#0080FF" stroke-linejoin="round"/>
<path d="M91.5551 14.2257C92.2392 14.2257 92.7938 13.6712 92.7938 12.987C92.7938 12.3029 92.2392 11.7483 91.5551 11.7483C90.871 11.7483 90.3164 12.3029 90.3164 12.987C90.3164 13.6712 90.871 14.2257 91.5551 14.2257Z" stroke="#0080FF" stroke-linejoin="round"/>
<path d="M97.3354 14.2257C98.0195 14.2257 98.5741 13.6712 98.5741 12.987C98.5741 12.3029 98.0195 11.7483 97.3354 11.7483C96.6513 11.7483 96.0967 12.3029 96.0967 12.987C96.0967 13.6712 96.6513 14.2257 97.3354 14.2257Z" stroke="#0080FF" stroke-linejoin="round"/>
<path d="M103.116 14.2257C103.8 14.2257 104.354 13.6712 104.354 12.987C104.354 12.3029 103.8 11.7483 103.116 11.7483C102.432 11.7483 101.877 12.3029 101.877 12.987C101.877 13.6712 102.432 14.2257 103.116 14.2257Z" stroke="#0080FF" stroke-linejoin="round"/>
<path d="M68.019 20.6258C68.7031 20.6258 69.2577 20.0712 69.2577 19.3871C69.2577 18.7029 68.7031 18.1483 68.019 18.1483C67.3349 18.1483 66.7803 18.7029 66.7803 19.3871C66.7803 20.0712 67.3349 20.6258 68.019 20.6258Z" stroke="#0080FF" stroke-linejoin="round"/>
<path d="M74.0063 20.6258C74.6904 20.6258 75.245 20.0712 75.245 19.3871C75.245 18.7029 74.6904 18.1483 74.0063 18.1483C73.3222 18.1483 72.7676 18.7029 72.7676 19.3871C72.7676 20.0712 73.3222 20.6258 74.0063 20.6258Z" stroke="#0080FF" stroke-linejoin="round"/>
<path d="M79.7866 20.6258C80.4707 20.6258 81.0253 20.0712 81.0253 19.3871C81.0253 18.7029 80.4707 18.1483 79.7866 18.1483C79.1024 18.1483 78.5479 18.7029 78.5479 19.3871C78.5479 20.0712 79.1024 20.6258 79.7866 20.6258Z" stroke="#0080FF" stroke-linejoin="round"/>
<path d="M85.5668 20.6258C86.251 20.6258 86.8055 20.0712 86.8055 19.3871C86.8055 18.7029 86.251 18.1483 85.5668 18.1483C84.8827 18.1483 84.3281 18.7029 84.3281 19.3871C84.3281 20.0712 84.8827 20.6258 85.5668 20.6258Z" stroke="#0080FF" stroke-linejoin="round"/>
<path d="M91.5551 20.6258C92.2392 20.6258 92.7938 20.0712 92.7938 19.3871C92.7938 18.7029 92.2392 18.1483 91.5551 18.1483C90.871 18.1483 90.3164 18.7029 90.3164 19.3871C90.3164 20.0712 90.871 20.6258 91.5551 20.6258Z" stroke="#0080FF" stroke-linejoin="round"/>
<path d="M97.3354 20.6258C98.0195 20.6258 98.5741 20.0712 98.5741 19.3871C98.5741 18.7029 98.0195 18.1483 97.3354 18.1483C96.6513 18.1483 96.0967 18.7029 96.0967 19.3871C96.0967 20.0712 96.6513 20.6258 97.3354 20.6258Z" stroke="#0080FF" stroke-linejoin="round"/>
<path d="M103.116 20.6258C103.8 20.6258 104.354 20.0712 104.354 19.3871C104.354 18.7029 103.8 18.1483 103.116 18.1483C102.432 18.1483 101.877 18.7029 101.877 19.3871C101.877 20.0712 102.432 20.6258 103.116 20.6258Z" stroke="#0080FF" stroke-linejoin="round"/>
<path d="M55.6705 5.55479L53.5752 5.55479M60.5867 5.55479L57.9186 5.55479" stroke="#0080FF" stroke-linecap="round"/>
<path d="M107.367 46.0181C107.367 47.951 105.8 49.5181 103.867 49.5181L64.313 49.5181L64.313 29.4217L103.867 29.4217C105.8 29.4217 107.367 30.9887 107.367 32.9217L107.367 46.0181Z" fill="#EEF7FF" stroke="#0080FF"/>
<path d="M21.5 32.9217C21.5 30.9887 23.067 29.4217 25 29.4217L64.5542 29.4217L64.5542 49.5181L25 49.5181C23.067 49.5181 21.5 47.9511 21.5 46.0181L21.5 32.9217Z" fill="white" stroke="#0080FF"/>
<rect x="57.2832" y="36.7292" width="4.33549" height="0.825807" rx="0.412904" fill="#08FFC8"/>
<rect x="55.4258" y="39.0002" width="6.19355" height="0.825807" rx="0.412904" fill="#FFB92A"/>
<rect x="59.7607" y="41.2711" width="1.85807" height="0.825807" rx="0.412904" fill="#FFB92A"/>
<path d="M31.4776 41.2711C32.6178 41.2711 33.5421 40.3468 33.5421 39.2066C33.5421 38.0664 32.6178 37.1421 31.4776 37.1421C30.3374 37.1421 29.4131 38.0664 29.4131 39.2066C29.4131 40.3468 30.3374 41.2711 31.4776 41.2711Z" fill="#08FFC8"/>
<path d="M37.4639 41.2711C38.6041 41.2711 39.5285 40.3468 39.5285 39.2066C39.5285 38.0664 38.6041 37.1421 37.4639 37.1421C36.3237 37.1421 35.3994 38.0664 35.3994 39.2066C35.3994 40.3468 36.3237 41.2711 37.4639 41.2711Z" fill="#FFB92A"/>
<path d="M68.019 33.8389C68.7031 33.8389 69.2577 33.2843 69.2577 32.6002C69.2577 31.9161 68.7031 31.3615 68.019 31.3615C67.3349 31.3615 66.7803 31.9161 66.7803 32.6002C66.7803 33.2843 67.3349 33.8389 68.019 33.8389Z" fill="#0080FF"/>
<path d="M74.0063 33.8389C74.6904 33.8389 75.245 33.2843 75.245 32.6002C75.245 31.9161 74.6904 31.3615 74.0063 31.3615C73.3222 31.3615 72.7676 31.9161 72.7676 32.6002C72.7676 33.2843 73.3222 33.8389 74.0063 33.8389Z" stroke="#0080FF" stroke-linejoin="round"/>
<path d="M79.7866 33.8389C80.4707 33.8389 81.0253 33.2843 81.0253 32.6002C81.0253 31.9161 80.4707 31.3615 79.7866 31.3615C79.1024 31.3615 78.5479 31.9161 78.5479 32.6002C78.5479 33.2843 79.1024 33.8389 79.7866 33.8389Z" stroke="#0080FF" stroke-linejoin="round"/>
<path d="M85.5668 33.8389C86.251 33.8389 86.8055 33.2843 86.8055 32.6002C86.8055 31.9161 86.251 31.3615 85.5668 31.3615C84.8827 31.3615 84.3281 31.9161 84.3281 32.6002C84.3281 33.2843 84.8827 33.8389 85.5668 33.8389Z" stroke="#0080FF" stroke-linejoin="round"/>
<path d="M91.5551 33.8389C92.2392 33.8389 92.7938 33.2843 92.7938 32.6002C92.7938 31.9161 92.2392 31.3615 91.5551 31.3615C90.871 31.3615 90.3164 31.9161 90.3164 32.6002C90.3164 33.2843 90.871 33.8389 91.5551 33.8389Z" stroke="#0080FF" stroke-linejoin="round"/>
<path d="M97.3354 33.8389C98.0195 33.8389 98.5741 33.2843 98.5741 32.6002C98.5741 31.9161 98.0195 31.3615 97.3354 31.3615C96.6513 31.3615 96.0967 31.9161 96.0967 32.6002C96.0967 33.2843 96.6513 33.8389 97.3354 33.8389Z" stroke="#0080FF" stroke-linejoin="round"/>
<path d="M103.116 33.8389C103.8 33.8389 104.354 33.2843 104.354 32.6002C104.354 31.9161 103.8 31.3615 103.116 31.3615C102.432 31.3615 101.877 31.9161 101.877 32.6002C101.877 33.2843 102.432 33.8389 103.116 33.8389Z" stroke="#0080FF" stroke-linejoin="round"/>
<path d="M68.019 40.4454C68.7031 40.4454 69.2577 39.8908 69.2577 39.2067C69.2577 38.5225 68.7031 37.968 68.019 37.968C67.3349 37.968 66.7803 38.5225 66.7803 39.2067C66.7803 39.8908 67.3349 40.4454 68.019 40.4454Z" stroke="#0080FF" stroke-linejoin="round"/>
<path d="M74.0063 40.4454C74.6904 40.4454 75.245 39.8908 75.245 39.2067C75.245 38.5225 74.6904 37.968 74.0063 37.968C73.3222 37.968 72.7676 38.5225 72.7676 39.2067C72.7676 39.8908 73.3222 40.4454 74.0063 40.4454Z" stroke="#0080FF" stroke-linejoin="round"/>
<path d="M79.7866 40.4454C80.4707 40.4454 81.0253 39.8908 81.0253 39.2067C81.0253 38.5225 80.4707 37.968 79.7866 37.968C79.1024 37.968 78.5479 38.5225 78.5479 39.2067C78.5479 39.8908 79.1024 40.4454 79.7866 40.4454Z" stroke="#0080FF" stroke-linejoin="round"/>
<path d="M85.5668 40.4454C86.251 40.4454 86.8055 39.8908 86.8055 39.2067C86.8055 38.5225 86.251 37.968 85.5668 37.968C84.8827 37.968 84.3281 38.5225 84.3281 39.2067C84.3281 39.8908 84.8827 40.4454 85.5668 40.4454Z" fill="#0080FF"/>
<path d="M91.5551 40.4454C92.2392 40.4454 92.7938 39.8908 92.7938 39.2067C92.7938 38.5225 92.2392 37.968 91.5551 37.968C90.871 37.968 90.3164 38.5225 90.3164 39.2067C90.3164 39.8908 90.871 40.4454 91.5551 40.4454Z" stroke="#0080FF" stroke-linejoin="round"/>
<path d="M97.3354 40.4454C98.0195 40.4454 98.5741 39.8908 98.5741 39.2067C98.5741 38.5225 98.0195 37.968 97.3354 37.968C96.6513 37.968 96.0967 38.5225 96.0967 39.2067C96.0967 39.8908 96.6513 40.4454 97.3354 40.4454Z" stroke="#0080FF" stroke-linejoin="round"/>
<path d="M103.116 40.4454C103.8 40.4454 104.354 39.8908 104.354 39.2067C104.354 38.5225 103.8 37.968 103.116 37.968C102.432 37.968 101.877 38.5225 101.877 39.2067C101.877 39.8908 102.432 40.4454 103.116 40.4454Z" stroke="#0080FF" stroke-linejoin="round"/>
<path d="M68.019 46.8453C68.7031 46.8453 69.2577 46.2907 69.2577 45.6066C69.2577 44.9225 68.7031 44.3679 68.019 44.3679C67.3349 44.3679 66.7803 44.9225 66.7803 45.6066C66.7803 46.2907 67.3349 46.8453 68.019 46.8453Z" stroke="#0080FF" stroke-linejoin="round"/>
<path d="M74.0063 46.8453C74.6904 46.8453 75.245 46.2907 75.245 45.6066C75.245 44.9225 74.6904 44.3679 74.0063 44.3679C73.3222 44.3679 72.7676 44.9225 72.7676 45.6066C72.7676 46.2907 73.3222 46.8453 74.0063 46.8453Z" stroke="#0080FF" stroke-linejoin="round"/>
<path d="M79.7866 46.8453C80.4707 46.8453 81.0253 46.2907 81.0253 45.6066C81.0253 44.9225 80.4707 44.3679 79.7866 44.3679C79.1024 44.3679 78.5479 44.9225 78.5479 45.6066C78.5479 46.2907 79.1024 46.8453 79.7866 46.8453Z" stroke="#0080FF" stroke-linejoin="round"/>
<path d="M85.5668 46.8453C86.251 46.8453 86.8055 46.2907 86.8055 45.6066C86.8055 44.9225 86.251 44.3679 85.5668 44.3679C84.8827 44.3679 84.3281 44.9225 84.3281 45.6066C84.3281 46.2907 84.8827 46.8453 85.5668 46.8453Z" stroke="#0080FF" stroke-linejoin="round"/>
<path d="M91.5551 46.8453C92.2392 46.8453 92.7938 46.2907 92.7938 45.6066C92.7938 44.9225 92.2392 44.3679 91.5551 44.3679C90.871 44.3679 90.3164 44.9225 90.3164 45.6066C90.3164 46.2907 90.871 46.8453 91.5551 46.8453Z" fill="#0080FF"/>
<path d="M97.3354 46.8453C98.0195 46.8453 98.5741 46.2907 98.5741 45.6066C98.5741 44.9225 98.0195 44.3679 97.3354 44.3679C96.6513 44.3679 96.0967 44.9225 96.0967 45.6066C96.0967 46.2907 96.6513 46.8453 97.3354 46.8453Z" stroke="#0080FF" stroke-linejoin="round"/>
<path d="M103.116 46.8453C103.8 46.8453 104.354 46.2907 104.354 45.6066C104.354 44.9225 103.8 44.3679 103.116 44.3679C102.432 44.3679 101.877 44.9225 101.877 45.6066C101.877 46.2907 102.432 46.8453 103.116 46.8453Z" stroke="#0080FF" stroke-linejoin="round"/>
<path d="M27.4845 46.8453L31.1671 46.8453M34.6504 46.8453L33.7197 46.8453" stroke="#0080FF" stroke-linecap="round"/>
<path d="M107.367 72.0783C107.367 74.0113 105.8 75.5783 103.867 75.5783L64.313 75.5783L64.313 55.4819L103.867 55.4819C105.8 55.4819 107.367 57.0489 107.367 58.9819L107.367 72.0783Z" fill="white" stroke="#0080FF"/>
<path d="M21.5 58.9819C21.5 57.0489 23.067 55.4819 25 55.4819L64.5542 55.4819L64.5542 75.5783L25 75.5783C23.067 75.5783 21.5 74.0113 21.5 72.0783L21.5 58.9819Z" fill="white" stroke="#0080FF"/>
<rect x="58.1094" y="62.9484" width="3.50968" height="0.825807" rx="0.412904" fill="#08FFC8"/>
<rect x="58.7285" y="65.2194" width="2.89033" height="0.825807" rx="0.412904" fill="#FFB92A"/>
<rect x="57.2832" y="67.4903" width="4.33549" height="0.825807" rx="0.412904" fill="#08FFC8"/>
<path d="M31.4776 67.4904C32.6178 67.4904 33.5421 66.5661 33.5421 65.4259C33.5421 64.2857 32.6178 63.3614 31.4776 63.3614C30.3374 63.3614 29.4131 64.2857 29.4131 65.4259C29.4131 66.5661 30.3374 67.4904 31.4776 67.4904Z" fill="#08FFC8"/>
<path d="M37.4639 67.4904C38.6041 67.4904 39.5285 66.5661 39.5285 65.4259C39.5285 64.2857 38.6041 63.3614 37.4639 63.3614C36.3237 63.3614 35.3994 64.2857 35.3994 65.4259C35.3994 66.5661 36.3237 67.4904 37.4639 67.4904Z" fill="#FFB92A"/>
<path d="M85.3608 60.0581C86.0449 60.0581 86.5995 59.5035 86.5995 58.8194C86.5995 58.1353 86.0449 57.5807 85.3608 57.5807C84.6767 57.5807 84.1221 58.1353 84.1221 58.8194C84.1221 59.5035 84.6767 60.0581 85.3608 60.0581Z" fill="#0080FF"/>
<path d="M68.019 60.0581C68.7031 60.0581 69.2577 59.5035 69.2577 58.8194C69.2577 58.1353 68.7031 57.5807 68.019 57.5807C67.3349 57.5807 66.7803 58.1353 66.7803 58.8194C66.7803 59.5035 67.3349 60.0581 68.019 60.0581Z" stroke="#0080FF" stroke-linejoin="round"/>
<path d="M73.8002 60.0581C74.4844 60.0581 75.0389 59.5035 75.0389 58.8194C75.0389 58.1353 74.4844 57.5807 73.8002 57.5807C73.1161 57.5807 72.5615 58.1353 72.5615 58.8194C72.5615 59.5035 73.1161 60.0581 73.8002 60.0581Z" stroke="#0080FF" stroke-linejoin="round"/>
<path d="M79.5805 60.0581C80.2646 60.0581 80.8192 59.5035 80.8192 58.8194C80.8192 58.1353 80.2646 57.5807 79.5805 57.5807C78.8964 57.5807 78.3418 58.1353 78.3418 58.8194C78.3418 59.5035 78.8964 60.0581 79.5805 60.0581Z" stroke="#0080FF" stroke-linejoin="round"/>
<path d="M91.5551 60.0581C92.2392 60.0581 92.7938 59.5035 92.7938 58.8194C92.7938 58.1353 92.2392 57.5807 91.5551 57.5807C90.871 57.5807 90.3164 58.1353 90.3164 58.8194C90.3164 59.5035 90.871 60.0581 91.5551 60.0581Z" stroke="#0080FF" stroke-linejoin="round"/>
<path d="M97.3354 60.0581C98.0195 60.0581 98.5741 59.5035 98.5741 58.8194C98.5741 58.1353 98.0195 57.5807 97.3354 57.5807C96.6513 57.5807 96.0967 58.1353 96.0967 58.8194C96.0967 59.5035 96.6513 60.0581 97.3354 60.0581Z" stroke="#0080FF" stroke-linejoin="round"/>
<path d="M103.116 60.0581C103.8 60.0581 104.354 59.5035 104.354 58.8194C104.354 58.1353 103.8 57.5807 103.116 57.5807C102.432 57.5807 101.877 58.1353 101.877 58.8194C101.877 59.5035 102.432 60.0581 103.116 60.0581Z" stroke="#0080FF" stroke-linejoin="round"/>
<path d="M68.019 66.6646C68.7031 66.6646 69.2577 66.11 69.2577 65.4258C69.2577 64.7417 68.7031 64.1871 68.019 64.1871C67.3349 64.1871 66.7803 64.7417 66.7803 65.4258C66.7803 66.11 67.3349 66.6646 68.019 66.6646Z" stroke="#0080FF" stroke-linejoin="round"/>
<path d="M74.0063 66.6646C74.6904 66.6646 75.245 66.11 75.245 65.4258C75.245 64.7417 74.6904 64.1871 74.0063 64.1871C73.3222 64.1871 72.7676 64.7417 72.7676 65.4258C72.7676 66.11 73.3222 66.6646 74.0063 66.6646Z" stroke="#0080FF" stroke-linejoin="round"/>
<path d="M79.7866 66.6646C80.4707 66.6646 81.0253 66.11 81.0253 65.4258C81.0253 64.7417 80.4707 64.1871 79.7866 64.1871C79.1024 64.1871 78.5479 64.7417 78.5479 65.4258C78.5479 66.11 79.1024 66.6646 79.7866 66.6646Z" stroke="#0080FF" stroke-linejoin="round"/>
<path d="M97.5414 66.6646C98.2256 66.6646 98.7802 66.11 98.7802 65.4258C98.7802 64.7417 98.2256 64.1871 97.5414 64.1871C96.8573 64.1871 96.3027 64.7417 96.3027 65.4258C96.3027 66.11 96.8573 66.6646 97.5414 66.6646Z" fill="#0080FF"/>
<path d="M85.5668 66.6646C86.251 66.6646 86.8055 66.11 86.8055 65.4258C86.8055 64.7417 86.251 64.1871 85.5668 64.1871C84.8827 64.1871 84.3281 64.7417 84.3281 65.4258C84.3281 66.11 84.8827 66.6646 85.5668 66.6646Z" stroke="#0080FF" stroke-linejoin="round"/>
<path d="M91.5551 66.6646C92.2392 66.6646 92.7938 66.11 92.7938 65.4258C92.7938 64.7417 92.2392 64.1871 91.5551 64.1871C90.871 64.1871 90.3164 64.7417 90.3164 65.4258C90.3164 66.11 90.871 66.6646 91.5551 66.6646Z" stroke="#0080FF" stroke-linejoin="round"/>
<path d="M103.116 66.6646C103.8 66.6646 104.354 66.11 104.354 65.4258C104.354 64.7417 103.8 64.1871 103.116 64.1871C102.432 64.1871 101.877 64.7417 101.877 65.4258C101.877 66.11 102.432 66.6646 103.116 66.6646Z" stroke="#0080FF" stroke-linejoin="round"/>
<path d="M68.019 73.0645C68.7031 73.0645 69.2577 72.51 69.2577 71.8258C69.2577 71.1417 68.7031 70.5871 68.019 70.5871C67.3349 70.5871 66.7803 71.1417 66.7803 71.8258C66.7803 72.51 67.3349 73.0645 68.019 73.0645Z" stroke="#0080FF" stroke-linejoin="round"/>
<path d="M79.7866 73.0645C80.4707 73.0645 81.0253 72.51 81.0253 71.8258C81.0253 71.1417 80.4707 70.5871 79.7866 70.5871C79.1024 70.5871 78.5479 71.1417 78.5479 71.8258C78.5479 72.51 79.1024 73.0645 79.7866 73.0645Z" stroke="#0080FF" stroke-linejoin="round"/>
<path d="M85.5668 73.0645C86.251 73.0645 86.8055 72.51 86.8055 71.8258C86.8055 71.1417 86.251 70.5871 85.5668 70.5871C84.8827 70.5871 84.3281 71.1417 84.3281 71.8258C84.3281 72.51 84.8827 73.0645 85.5668 73.0645Z" stroke="#0080FF" stroke-linejoin="round"/>
<path d="M91.3481 73.0645C92.0322 73.0645 92.5868 72.51 92.5868 71.8258C92.5868 71.1417 92.0322 70.5871 91.3481 70.5871C90.664 70.5871 90.1094 71.1417 90.1094 71.8258C90.1094 72.51 90.664 73.0645 91.3481 73.0645Z" stroke="#0080FF" stroke-linejoin="round"/>
<path d="M74.0063 73.0645C74.6904 73.0645 75.245 72.51 75.245 71.8258C75.245 71.1417 74.6904 70.5871 74.0063 70.5871C73.3222 70.5871 72.7676 71.1417 72.7676 71.8258C72.7676 72.51 73.3222 73.0645 74.0063 73.0645Z" fill="#0080FF"/>
<path d="M97.3354 73.0645C98.0195 73.0645 98.5741 72.51 98.5741 71.8258C98.5741 71.1417 98.0195 70.5871 97.3354 70.5871C96.6513 70.5871 96.0967 71.1417 96.0967 71.8258C96.0967 72.51 96.6513 73.0645 97.3354 73.0645Z" stroke="#0080FF" stroke-linejoin="round"/>
<path d="M103.116 73.0645C103.8 73.0645 104.354 72.51 104.354 71.8258C104.354 71.1417 103.8 70.5871 103.116 70.5871C102.432 70.5871 101.877 71.1417 101.877 71.8258C101.877 72.51 102.432 73.0645 103.116 73.0645Z" stroke="#0080FF" stroke-linejoin="round"/>
<path d="M32.1689 73.0645L29.0665 73.0645M24.4579 61.1936L24.4579 70.5871C24.4579 71.9554 25.5671 73.0645 26.9354 73.0645V73.0645" stroke="#0080FF" stroke-linecap="round"/>
<path d="M107.367 99.9999C107.367 101.933 105.8 103.5 103.867 103.5L64.9335 103.5L64.9335 83.4035L103.867 83.4035C105.8 83.4035 107.367 84.9705 107.367 86.9035L107.367 99.9999Z" fill="#EEF7FF" stroke="#0080FF"/>
<path d="M22.1201 86.9036C22.1201 84.9706 23.6871 83.4036 25.6201 83.4036L65.1743 83.4036L65.1743 103.5L25.6201 103.5C23.6871 103.5 22.1201 101.933 22.1201 100L22.1201 86.9036Z" fill="white" stroke="#0080FF"/>
<rect x="59.0264" y="90.6645" width="2.63851" height="0.879504" rx="0.439752" fill="#08FFC8"/>
<rect x="55.8018" y="93.0099" width="5.86336" height="0.879504" rx="0.439752" fill="#FFB92A"/>
<rect x="60.4932" y="95.3552" width="1.17267" height="0.879504" rx="0.439752" fill="#08FFC8"/>
<path d="M31.6505 95.3426C32.7907 95.3426 33.715 94.4183 33.715 93.278C33.715 92.1378 32.7907 91.2135 31.6505 91.2135C30.5103 91.2135 29.5859 92.1378 29.5859 93.278C29.5859 94.4183 30.5103 95.3426 31.6505 95.3426Z" fill="#08FFC8"/>
<path d="M37.6378 95.3426C38.778 95.3426 39.7023 94.4183 39.7023 93.278C39.7023 92.1378 38.778 91.2135 37.6378 91.2135C36.4976 91.2135 35.5732 92.1378 35.5732 93.278C35.5732 94.4183 36.4976 95.3426 37.6378 95.3426Z" fill="#FFB92A"/>
<path d="M73.9731 87.9103C74.6572 87.9103 75.2118 87.3557 75.2118 86.6715C75.2118 85.9874 74.6572 85.4328 73.9731 85.4328C73.289 85.4328 72.7344 85.9874 72.7344 86.6715C72.7344 87.3557 73.289 87.9103 73.9731 87.9103Z" fill="#0080FF"/>
<path d="M68.1928 87.9103C68.8769 87.9103 69.4315 87.3557 69.4315 86.6715C69.4315 85.9874 68.8769 85.4328 68.1928 85.4328C67.5087 85.4328 66.9541 85.9874 66.9541 86.6715C66.9541 87.3557 67.5087 87.9103 68.1928 87.9103Z" stroke="#0080FF" stroke-linejoin="round"/>
<path d="M79.6752 87.9103C80.3594 87.9103 80.9139 87.3557 80.9139 86.6715C80.9139 85.9874 80.3594 85.4328 79.6752 85.4328C78.9911 85.4328 78.4365 85.9874 78.4365 86.6715C78.4365 87.3557 78.9911 87.9103 79.6752 87.9103Z" stroke="#0080FF" stroke-linejoin="round"/>
<path d="M85.3774 87.9103C86.0615 87.9103 86.6161 87.3557 86.6161 86.6715C86.6161 85.9874 86.0615 85.4328 85.3774 85.4328C84.6933 85.4328 84.1387 85.9874 84.1387 86.6715C84.1387 87.3557 84.6933 87.9103 85.3774 87.9103Z" stroke="#0080FF" stroke-linejoin="round"/>
<path d="M91.728 87.9103C92.4121 87.9103 92.9667 87.3557 92.9667 86.6716C92.9667 85.9875 92.4121 85.4329 91.728 85.4329C91.0438 85.4329 90.4893 85.9875 90.4893 86.6716C90.4893 87.3557 91.0438 87.9103 91.728 87.9103Z" stroke="#0080FF" stroke-linejoin="round"/>
<path d="M97.5082 87.9103C98.1924 87.9103 98.747 87.3557 98.747 86.6716C98.747 85.9875 98.1924 85.4329 97.5082 85.4329C96.8241 85.4329 96.2695 85.9875 96.2695 86.6716C96.2695 87.3557 96.8241 87.9103 97.5082 87.9103Z" stroke="#0080FF" stroke-linejoin="round"/>
<path d="M103.289 87.9103C103.974 87.9103 104.528 87.3557 104.528 86.6716C104.528 85.9875 103.974 85.4329 103.289 85.4329C102.605 85.4329 102.051 85.9875 102.051 86.6716C102.051 87.3557 102.605 87.9103 103.289 87.9103Z" stroke="#0080FF" stroke-linejoin="round"/>
<path d="M68.1928 94.5168C68.8769 94.5168 69.4315 93.9622 69.4315 93.278C69.4315 92.5939 68.8769 92.0393 68.1928 92.0393C67.5087 92.0393 66.9541 92.5939 66.9541 93.278C66.9541 93.9622 67.5087 94.5168 68.1928 94.5168Z" stroke="#0080FF" stroke-linejoin="round"/>
<path d="M74.1791 94.5168C74.8633 94.5168 75.4179 93.9622 75.4179 93.278C75.4179 92.5939 74.8633 92.0393 74.1791 92.0393C73.495 92.0393 72.9404 92.5939 72.9404 93.278C72.9404 93.9622 73.495 94.5168 74.1791 94.5168Z" stroke="#0080FF" stroke-linejoin="round"/>
<path d="M79.9604 94.5168C80.6445 94.5168 81.1991 93.9622 81.1991 93.278C81.1991 92.5939 80.6445 92.0393 79.9604 92.0393C79.2763 92.0393 78.7217 92.5939 78.7217 93.278C78.7217 93.9622 79.2763 94.5168 79.9604 94.5168Z" stroke="#0080FF" stroke-linejoin="round"/>
<path d="M91.7358 94.5168C92.4199 94.5168 92.9745 93.9622 92.9745 93.278C92.9745 92.5939 92.4199 92.0393 91.7358 92.0393C91.0517 92.0393 90.4971 92.5939 90.4971 93.278C90.4971 93.9622 91.0517 94.5168 91.7358 94.5168Z" fill="#0080FF"/>
<path d="M97.7319 94.5168C98.416 94.5168 98.9706 93.9622 98.9706 93.278C98.9706 92.5939 98.416 92.0393 97.7319 92.0393C97.0478 92.0393 96.4932 92.5939 96.4932 93.278C96.4932 93.9622 97.0478 94.5168 97.7319 94.5168Z" stroke="#0080FF" stroke-linejoin="round"/>
<path d="M85.7407 94.5168C86.4248 94.5168 86.9794 93.9622 86.9794 93.278C86.9794 92.5939 86.4248 92.0393 85.7407 92.0393C85.0565 92.0393 84.502 92.5939 84.502 93.278C84.502 93.9622 85.0565 94.5168 85.7407 94.5168Z" stroke="#0080FF" stroke-linejoin="round"/>
<path d="M103.289 94.5168C103.974 94.5168 104.528 93.9622 104.528 93.278C104.528 92.5939 103.974 92.0393 103.289 92.0393C102.605 92.0393 102.051 92.5939 102.051 93.278C102.051 93.9622 102.605 94.5168 103.289 94.5168Z" stroke="#0080FF" stroke-linejoin="round"/>
<path d="M68.1928 100.917C68.8769 100.917 69.4315 100.362 69.4315 99.678C69.4315 98.9939 68.8769 98.4393 68.1928 98.4393C67.5087 98.4393 66.9541 98.9939 66.9541 99.678C66.9541 100.362 67.5087 100.917 68.1928 100.917Z" stroke="#0080FF" stroke-linejoin="round"/>
<path d="M79.9604 100.917C80.6445 100.917 81.1991 100.362 81.1991 99.678C81.1991 98.9939 80.6445 98.4393 79.9604 98.4393C79.2763 98.4393 78.7217 98.9939 78.7217 99.678C78.7217 100.362 79.2763 100.917 79.9604 100.917Z" stroke="#0080FF" stroke-linejoin="round"/>
<path d="M74.1791 100.917C74.8633 100.917 75.4179 100.362 75.4179 99.678C75.4179 98.9939 74.8633 98.4393 74.1791 98.4393C73.495 98.4393 72.9404 98.9939 72.9404 99.678C72.9404 100.362 73.495 100.917 74.1791 100.917Z" stroke="#0080FF" stroke-linejoin="round"/>
<path d="M91.5209 100.917C92.2051 100.917 92.7596 100.362 92.7596 99.678C92.7596 98.9939 92.2051 98.4393 91.5209 98.4393C90.8368 98.4393 90.2822 98.9939 90.2822 99.678C90.2822 100.362 90.8368 100.917 91.5209 100.917Z" stroke="#0080FF" stroke-linejoin="round"/>
<path d="M85.7446 100.917C86.4287 100.917 86.9833 100.362 86.9833 99.678C86.9833 98.9939 86.4287 98.4393 85.7446 98.4393C85.0604 98.4393 84.5059 98.9939 84.5059 99.678C84.5059 100.362 85.0604 100.917 85.7446 100.917Z" fill="#0080FF"/>
<path d="M97.5082 100.917C98.1924 100.917 98.747 100.362 98.747 99.678C98.747 98.9939 98.1924 98.4393 97.5082 98.4393C96.8241 98.4393 96.2695 98.9939 96.2695 99.678C96.2695 100.362 96.8241 100.917 97.5082 100.917Z" stroke="#0080FF" stroke-linejoin="round"/>
<path d="M103.289 100.917C103.974 100.917 104.528 100.362 104.528 99.678C104.528 98.9939 103.974 98.4393 103.289 98.4393C102.605 98.4393 102.051 98.9939 102.051 99.678C102.051 100.362 102.605 100.917 103.289 100.917Z" stroke="#0080FF" stroke-linejoin="round"/>
<path d="M32.1681 100.917L29.6862 100.917M24.631 89.0458L24.631 98.4393C24.631 99.8076 25.7402 100.917 27.1084 100.917V100.917M34.65 100.917L35.2705 100.917" stroke="#0080FF" stroke-linecap="round"/>
<path d="M109.361 9.77408V13.6443M109.361 15.5271V16.2593" stroke="#0080FF" stroke-linecap="round"/>
<path d="M62.5811 57.0777V58.2785M62.5811 60.4055C62.5811 60.4055 62.5811 60.6155 62.5811 60.7501" stroke="#0080FF" stroke-linecap="round"/>
<path d="M42.8193 25.1458L46.636 25.2883M48.4928 25.3576L49.2149 25.3845" stroke="#0080FF" stroke-linecap="round"/>
<path d="M42.8193 80.6968L46.636 80.8393M48.4928 80.9087L49.2149 80.9356" stroke="#0080FF" stroke-linecap="round"/>
<path d="M34.3516 1H40.8367" stroke="#0080FF" stroke-linecap="round"/>
<path d="M42.3623 1H44.2392M46.7417 1H58.003" stroke="#0080FF" stroke-linecap="round"/>
<path d="M87.1981 50.0181H84.9092" stroke="white" stroke-linecap="round"/>
<path d="M40.8555 51.259L45.4332 51.6405" stroke="#0080FF" stroke-linecap="round"/>
<path d="M28.3145 27.8617C29.0257 29.3581 28.3892 31.1478 26.8928 31.859L14.5473 37.7268C13.0509 38.4381 11.2612 37.8016 10.55 36.3052L3.64386 21.7753C3.32602 21.1065 3.26669 20.3439 3.47729 19.6341L4.16422 17.3189C4.40633 16.5028 4.98369 15.8281 5.75246 15.4627L16.64 10.2878C18.1364 9.57657 19.9261 10.2131 20.6373 11.7095L28.3145 27.8617Z" fill="white" stroke="#0080FF" stroke-linejoin="round"/>
<path d="M7.32781 33.6149L8.25225 35.5599M6.82357 32.5541L6.31934 31.4932" stroke="#0080FF" stroke-linecap="round" stroke-linejoin="round"/>
<path d="M21.2852 31.967L22.8765 31.2106" stroke="#0080FF" stroke-linecap="round" stroke-linejoin="round"/>
<path d="M7.50195 20.0753L17.6531 15.2504" stroke="#0080FF" stroke-linecap="round" stroke-linejoin="round"/>
<path d="M9.31152 23.8819L19.4627 19.0571" stroke="#0080FF" stroke-linecap="round" stroke-linejoin="round"/>
<path d="M10.9697 27.3714L16.0453 24.959" stroke="#0080FF" stroke-linecap="round" stroke-linejoin="round"/>
</svg>
