<svg width="577" height="284" viewBox="0 0 577 284" fill="none" xmlns="http://www.w3.org/2000/svg">
<g filter="url(#filter0_f_173_3965)">
<rect x="-1.26884" y="0.624542" width="53.4461" height="35.1489" rx="4" transform="matrix(-0.946689 -0.322148 -0.322148 0.946689 273.177 29.4126)" fill="white" stroke="#0080FF" stroke-width="2" stroke-linejoin="round"/>
<path d="M271.317 31.8984L245.714 40.5438C243.573 41.2667 241.213 40.4637 239.957 38.5849L224.941 16.117" stroke="#0080FF" stroke-width="2" stroke-linecap="round" stroke-linejoin="round"/>
<path d="M214.968 24.1835L210.752 37.2792" stroke="#0080FF" stroke-width="2" stroke-linecap="round" stroke-linejoin="round"/>
</g>
<path d="M285.329 231.179C280.574 224.077 271.774 213.707 261.925 215.715C271.883 225.845 276.553 235.737 278.726 242.332C279.474 244.601 283.318 245.171 284.441 243.063C287.248 239.633 287.795 234.862 285.329 231.179Z" fill="white" stroke="#0080FF" stroke-width="2" stroke-linecap="round" stroke-linejoin="round"/>
<path d="M294.6 230.887C290.845 218.885 282.148 195.696 270.092 192.058C280.51 213.865 284.019 231.366 285.19 241.308C285.5 243.937 289.408 245.059 290.911 242.88C294.421 239.939 295.967 235.259 294.6 230.887Z" fill="white" stroke="#0080FF" stroke-width="2" stroke-linecap="round" stroke-linejoin="round"/>
<path d="M294.248 225.247C299.84 218.967 310.124 210.151 324.519 208.952C315.041 217.137 305.906 233.769 301.078 243.467C300.263 245.103 297.616 244.494 297.639 242.667L294.199 238.081C291.276 234.182 291.008 228.887 294.248 225.247Z" fill="white" stroke="#0080FF" stroke-width="2" stroke-linecap="round" stroke-linejoin="round"/>
<path d="M575.996 282.013C449.942 282.013 413.806 244.013 290.693 244.013C132.285 244.013 141.109 282.013 17.9961 282.013" stroke="#0080FF" stroke-width="2" stroke-linecap="round"/>
<path d="M298.062 96.8242V244.227H282.943V96.8242H298.062Z" fill="white" stroke="#0080FF" stroke-width="2" stroke-linecap="round" stroke-linejoin="round"/>
<path d="M288.997 96.9956L282.997 243.996V96.9956H288.997Z" fill="#0080FF"/>
<path d="M359.092 81.457C359.092 65.4408 346.108 52.457 330.092 52.457H253.067C240.365 52.457 230.067 62.7545 230.067 75.457V119.269C230.067 120.925 231.41 122.269 233.067 122.269H356.092C357.749 122.269 359.092 120.925 359.092 119.269V81.457Z" fill="white" stroke="#0080FF" stroke-width="2" stroke-linejoin="round"/>
<path d="M301.841 30.0396V53.9767" stroke="#0080FF" stroke-width="2" stroke-linecap="round" stroke-linejoin="round"/>
<path d="M359.092 79.1737C359.092 64.4185 347.13 52.457 332.375 52.457C317.62 52.457 305.658 64.4185 305.658 79.1737V122.269H359.092V79.1737Z" fill="white" stroke="#0080FF" stroke-width="2" stroke-linejoin="round"/>
<path fill-rule="evenodd" clip-rule="evenodd" d="M233.998 121.995H229.998V78.168C229.998 63.7131 241.716 51.9951 256.171 51.9951C256.848 51.9951 257.519 52.0202 258.183 52.0695C244.657 53.0851 233.998 64.3818 233.998 78.168V121.995Z" fill="#0080FF"/>
<path d="M320.041 153.937C322.379 159.362 326.619 163.744 331.963 166.259C352.182 175.775 373.396 155.146 364.447 134.669L358.808 121.763L306.178 121.763L320.041 153.937Z" fill="white" stroke="#0080FF" stroke-width="2" stroke-linejoin="round"/>
<path d="M347.196 174.074C343.625 174.947 334.825 175.75 328.187 171.975" stroke="#0080FF" stroke-width="2" stroke-linecap="round" stroke-linejoin="round"/>
<circle r="6.5591" transform="matrix(-1 0 0 1 295.542 55.2368)" fill="white" stroke="#0080FF" stroke-width="2"/>
<path d="M286.8 31.2221C286.988 31.4096 287.093 31.664 287.093 31.9292C287.093 32.1944 286.988 32.4487 286.8 32.6363L281.578 37.8584H300.101C301.206 37.8584 302.101 36.9629 302.101 35.8584V28C302.101 26.8954 301.206 26 300.101 26H281.578L286.8 31.2221Z" fill="white" stroke="#0080FF" stroke-width="2" stroke-linejoin="round"/>
<path d="M357.274 133.36L361.054 142.179" stroke="#0080FF" stroke-width="2" stroke-linecap="round" stroke-linejoin="round"/>
<path d="M318.849 225.329C317.589 226.379 314.944 229.109 314.44 231.628" stroke="#0080FF" stroke-width="2" stroke-linecap="round" stroke-linejoin="round"/>
<path d="M370.545 255.95C363.325 254.223 350.459 251.882 338.997 252.818" stroke="#0080FF" stroke-width="2" stroke-linecap="round" stroke-linejoin="round"/>
<path d="M216.432 241.126C211.829 241.196 201.498 241.886 196.996 244.085" stroke="#0080FF" stroke-width="2" stroke-linecap="round" stroke-linejoin="round"/>
<path d="M11.9946 282.013H1.99463" stroke="#0080FF" stroke-width="2" stroke-linecap="round" stroke-linejoin="round"/>
<g filter="url(#filter1_f_173_3965)">
<rect x="-0.394196" y="1.35816" width="128.261" height="85.2751" rx="8" transform="matrix(-0.87618 0.481984 0.481984 0.87618 219.738 79.3582)" fill="white" stroke="#0080FF" stroke-width="2" stroke-linejoin="round"/>
<path d="M221.475 87.7319L193.21 152.017C191.573 155.741 187.641 157.904 183.62 157.293L114.191 146.749" stroke="#0080FF" stroke-width="2" stroke-linecap="round" stroke-linejoin="round"/>
<path d="M201.598 196.372L187.446 204.696" stroke="#0080FF" stroke-width="2" stroke-linecap="round" stroke-linejoin="round"/>
<path d="M230.733 120.622L237.392 133.94" stroke="#0080FF" stroke-width="2" stroke-linecap="round" stroke-linejoin="round"/>
<path d="M240.722 138.934L241.555 140.598" stroke="#0080FF" stroke-width="2" stroke-linecap="round" stroke-linejoin="round"/>
</g>
<path d="M354 86V95.4489M354 100.488V103.008" stroke="#0080FF" stroke-width="2" stroke-linecap="round" stroke-linejoin="round"/>
<path d="M293.652 222.809V236.668M293.652 215.88V209.581" stroke="#0080FF" stroke-width="2" stroke-linecap="round" stroke-linejoin="round"/>
<path d="M318.849 133.36L321.369 139.029" stroke="#0080FF" stroke-width="2" stroke-linecap="round" stroke-linejoin="round"/>
<path d="M281.054 57.7676H274.754" stroke="#0080FF" stroke-width="2" stroke-linecap="round" stroke-linejoin="round"/>
<path d="M292.393 114.462H260.266" stroke="#0080FF" stroke-width="2" stroke-linecap="round" stroke-linejoin="round"/>
<rect x="-0.629421" y="1.26642" width="53.4461" height="35.1489" rx="4" transform="matrix(-0.947922 0.318501 0.318501 0.947922 522.929 28.2664)" fill="white" stroke="#0080FF" stroke-width="2" stroke-linejoin="round"/>
<path d="M522.557 32.1831L507.454 54.593C506.192 56.467 503.829 57.2609 501.69 56.5297L476.12 47.7859" stroke="#0080FF" stroke-width="2" stroke-linecap="round" stroke-linejoin="round"/>
<path d="M542.687 43.3306L534.687 46.3306" stroke="#0080FF" stroke-width="2" stroke-linecap="round" stroke-linejoin="round"/>
<path d="M539.187 50.8306L536.687 51.8306" stroke="#0080FF" stroke-width="2" stroke-linecap="round" stroke-linejoin="round"/>
<path d="M550.687 46.3306L543.687 48.8306" stroke="#0080FF" stroke-width="2" stroke-linecap="round" stroke-linejoin="round"/>
<circle r="3.77955" transform="matrix(-1 0 0 1 473.779 46.7625)" fill="#08FFC8"/>
<path d="M484.106 60.7559L486.626 67.685" stroke="#0080FF" stroke-width="2" stroke-linecap="round" stroke-linejoin="round"/>
<g filter="url(#filter2_f_173_3965)">
<rect x="-1.40244" y="0.182079" width="46.2466" height="30.3252" rx="4" transform="matrix(-0.792261 -0.610182 -0.610182 0.792261 466.546 147.621)" fill="white" stroke="#0080FF" stroke-width="2" stroke-linejoin="round"/>
<path d="M464.956 149.019L441.938 148.957C439.678 148.951 437.703 147.43 437.12 145.247L431.184 123.008" stroke="#0080FF" stroke-width="2" stroke-linecap="round" stroke-linejoin="round"/>
<path d="M443.121 160.575L433.672 153.016M429.893 149.866L428.003 148.606" stroke="#0080FF" stroke-width="2" stroke-linecap="round" stroke-linejoin="round"/>
</g>
<g filter="url(#filter3_f_173_3965)">
<rect x="-0.379341" y="1.36239" width="46.2466" height="30.3252" rx="4" transform="matrix(-0.870864 0.491524 0.491524 0.870864 547.33 153.845)" fill="white" stroke="#0080FF" stroke-width="2" stroke-linejoin="round"/>
<path d="M547.685 157.385L538.651 178.556C537.764 180.635 535.593 181.86 533.356 181.545L510.563 178.338" stroke="#0080FF" stroke-width="2" stroke-linecap="round" stroke-linejoin="round"/>
<path d="M549.811 181.997L539.165 187.749M534.791 190.001L532.893 191.25" stroke="#0080FF" stroke-width="2" stroke-linecap="round" stroke-linejoin="round"/>
</g>
<path d="M413.525 86.3911L406.162 81.5872" stroke="#0080FF" stroke-width="2" stroke-linecap="round" stroke-linejoin="round"/>
<path d="M405.844 87.8433L403.498 86.3779" stroke="#0080FF" stroke-width="2" stroke-linecap="round" stroke-linejoin="round"/>
<path d="M416.563 94.6416L410.211 90.3664" stroke="#0080FF" stroke-width="2" stroke-linecap="round" stroke-linejoin="round"/>
<rect x="-1.31905" y="0.51" width="64.2023" height="42.3555" rx="4" transform="matrix(-0.914526 -0.404527 -0.404527 0.914526 404.167 59.9455)" fill="white" stroke="#0080FF" stroke-width="2" stroke-linejoin="round"/>
<path d="M403.063 63.2651L368.689 71.5742C366.493 72.1051 364.213 71.0968 363.128 69.1143L346.152 38.0914" stroke="#0080FF" stroke-width="2" stroke-linecap="round" stroke-linejoin="round"/>
<circle r="6.38585" transform="matrix(-1 0 0 1 347.853 35.3858)" fill="#FFB92A"/>
<path d="M385.007 63.2627L382.104 63.8432" stroke="#0080FF" stroke-width="2" stroke-linecap="round" stroke-linejoin="round"/>
<path d="M392.554 77.7769L389.071 85.3238" stroke="#0080FF" stroke-width="2" stroke-linecap="round" stroke-linejoin="round"/>
<path d="M306 122H360V115H306V122Z" fill="#0080FF"/>
<path d="M459.996 264.013C449.922 261.431 452.496 263.013 438.496 258.513" stroke="#0080FF" stroke-width="2" stroke-linecap="round" stroke-linejoin="round"/>
<path d="M299.316 66.5342C297.854 67.183 294.17 68.1125 291.128 66.6399" stroke="#0080FF" stroke-width="2" stroke-linecap="round" stroke-linejoin="round"/>
<defs>
<filter id="filter0_f_173_3965" x="204.751" y="8.26904" width="74.3521" height="60.3447" filterUnits="userSpaceOnUse" color-interpolation-filters="sRGB">
<feFlood flood-opacity="0" result="BackgroundImageFix"/>
<feBlend mode="normal" in="SourceGraphic" in2="BackgroundImageFix" result="shape"/>
<feGaussianBlur stdDeviation="2.5" result="effect1_foregroundBlur_173_3965"/>
</filter>
<filter id="filter1_f_173_3965" x="102.221" y="74.2217" width="165.754" height="148.809" filterUnits="userSpaceOnUse" color-interpolation-filters="sRGB">
<feFlood flood-opacity="0" result="BackgroundImageFix"/>
<feBlend mode="normal" in="SourceGraphic" in2="BackgroundImageFix" result="shape"/>
<feGaussianBlur stdDeviation="4" result="effect1_foregroundBlur_173_3965"/>
</filter>
<filter id="filter2_f_173_3965" x="406.012" y="114.012" width="67.9238" height="65.0254" filterUnits="userSpaceOnUse" color-interpolation-filters="sRGB">
<feFlood flood-opacity="0" result="BackgroundImageFix"/>
<feBlend mode="normal" in="SourceGraphic" in2="BackgroundImageFix" result="shape"/>
<feGaussianBlur stdDeviation="3.5" result="effect1_foregroundBlur_173_3965"/>
</filter>
<filter id="filter3_f_173_3965" x="501.504" y="148.293" width="68.2827" height="62.2432" filterUnits="userSpaceOnUse" color-interpolation-filters="sRGB">
<feFlood flood-opacity="0" result="BackgroundImageFix"/>
<feBlend mode="normal" in="SourceGraphic" in2="BackgroundImageFix" result="shape"/>
<feGaussianBlur stdDeviation="3.5" result="effect1_foregroundBlur_173_3965"/>
</filter>
</defs>
</svg>
